<svg version="1.1" id="Capa_1" xmlns="http://www.w3.org/2000/svg" xmlns:xlink="http://www.w3.org/1999/xlink" x="0px" y="0px"
	 viewBox="0 0 234 41.2" style="enable-background:new 0 0 234 41.2;" xml:space="preserve">
<style type="text/css">
	.st0{fill:#D4BE7F;}
</style>
<g>
	<g>
		<path class="st0" d="M65.9,29.5l3.6-4.7c2.3,2.4,6.4,4.8,10,4.8c3.3,0,5.7-1.2,5.7-3.6c0-2.4-2.3-3.4-6.4-4.6
			c-5.6-1.6-11.5-3-11.5-9.7c0-5.9,4.7-9.5,11.4-9.5c4.9,0,9.2,2.1,12.2,4.6l-3.2,5c-2.3-2-5.9-3.8-8.9-3.8c-3.1,0-4.8,1.3-4.8,3.2
			c0,2.5,2.4,3.4,6.5,4.6c5.6,1.5,11.5,3.3,11.5,9.8c0,5.1-3.9,9.6-12.3,9.6C73.8,35.2,69.2,32.5,65.9,29.5z"/>
		<path class="st0" d="M97.3,34.6V2.9h9.7c9.7,0,16.9,4.1,16.9,15.7c0,11.9-7.4,16-16.9,16H97.3z M104.2,28.9h3.3
			c6.9,0,9.5-3.1,9.5-10.3c0-6.8-2.7-9.9-9.6-9.9h-3.2V28.9z"/>
		<path class="st0" d="M126.4,34.6l11.2-31.8h6.6l11,31.3l-6.7,1l-2.5-7.6h-10.8l-2.4,7.1H126.4z M136.9,22.5h7.4l-3.6-10.8h-0.1
			L136.9,22.5z"/>
		<path class="st0" d="M168.8,34.6v-0.7c0-4.6,1.1-9,9.5-14.4c4.9-3.1,6.8-4.3,6.8-7.5c0-2.4-1.5-3.8-4.1-3.8
			c-2.5,0-5.2,1.6-7.1,4.6L169.2,9c2.7-4.1,6.4-6.6,11.9-6.6c6.8,0,10.7,3.6,10.7,9.2c0,3.5-0.9,6.6-7,10.5
			c-4.6,2.9-7.6,5.3-7.8,7.1h14.5l1,5.4H168.8z"/>
		<path class="st0" d="M195.9,31.3c0-2,1.4-3.6,4.1-3.6c2.7,0,4.1,1.6,4.1,3.6c0,2-1.5,3.6-4.1,3.6
			C197.3,34.9,195.9,33.2,195.9,31.3z"/>
		<path class="st0" d="M207.7,18.8c0-9.9,4.9-16.4,13.2-16.4c8.3,0,13.1,6.5,13.1,16.4s-4.8,16.4-13.1,16.4
			C212.6,35.2,207.7,28.6,207.7,18.8z M227.1,18.8c0-7.2-2.3-10.9-6.2-10.9c-4.1,0-6.2,3.6-6.2,10.9s2.3,11,6.2,11
			C224.9,29.7,227.1,26,227.1,18.8z"/>
	</g>
	<g>
		<path class="st0" d="M19.5,21.7c0.4,0.4,0.8,0.8,1.1,1.1c0.5-0.5,1-1,1.5-1.5c0.7-0.7,1.4-1.4,2-2.1c-0.1-0.4-0.2-0.9-0.2-1.3
			c0-2.4,1.9-4.3,4.3-4.3c0.2,0,0.4,0,0.6,0c1.1-1.4,2-2.7,2.8-4c-2.8-2.8-6.7-4.6-11-4.6c-4.3,0-8.2,1.8-11,4.6
			C12.1,13.5,15.5,17.7,19.5,21.7"/>
		<path class="st0" d="M36.7,26.7c-0.5,1.2-1.1,2.4-1.8,3.5c0.1,0.2,0.2,0.3,0.3,0.5c2.3,3.9,2.7,6.2,2.7,7h-0.1
			c-0.6,0-2.9-0.2-7.5-3c-0.2-0.1-0.5-0.3-0.7-0.4c-0.3-0.2-0.6-0.4-0.9-0.6c-0.4-0.3-0.9-0.6-1.4-0.9c-0.1,0-0.1-0.1-0.1-0.1
			c-2.1-1.5-4.3-3.2-6.5-5.2c-0.9-0.8-1.7-1.5-2.5-2.4c-0.1-0.1-0.2-0.2-0.3-0.3c-0.2-0.2-0.5-0.5-0.7-0.7c-0.3-0.3-0.5-0.6-0.8-0.8
			c-0.1-0.1-0.1-0.1-0.2-0.2c-0.2-0.2-0.5-0.5-0.7-0.7c0,0-0.1-0.1-0.1-0.1c-0.5-0.6-1.1-1.2-1.6-1.7c-0.8-0.9-1.5-1.7-2.2-2.6
			c-1-1.2-2-2.5-2.8-3.7c0-0.1-0.1-0.1-0.1-0.2c-0.1-0.2-0.2-0.3-0.3-0.4C8,13.4,7.8,13,7.5,12.7c-0.1-0.1-0.1-0.2-0.2-0.3
			c0.8-0.8,1.2-1.8,1.2-3c0-2.4-1.9-4.3-4.3-4.3c-0.2,0-0.4,0-0.5,0C3.6,4.4,3.5,3.8,3.5,3.5h0.1c0.6,0,2.9,0.2,7.5,3
			c1.1-0.8,2.2-1.4,3.5-1.8C10.1,1.7,6.2,0,3.6,0C2.4,0,1.6,0.3,1,0.9C-0.2,2.1-0.2,4.2,0.7,7C0.3,7.7,0,8.5,0,9.4
			c0,2.3,1.8,4.2,4.1,4.3c0.2,0.3,0.4,0.6,0.6,0.9c0.4,0.6,0.8,1.2,1.2,1.8c-0.4,1.3-0.6,2.7-0.6,4.1c0,4.3,1.7,8.2,4.6,11
			c1.8-1.2,3.7-2.5,5.6-4c0.8,0.8,1.7,1.6,2.5,2.4c-1.7,1.4-3.4,2.7-5.1,3.8c-0.4,0.3-0.8,0.5-1.1,0.7c-0.2,0.1-0.4,0.3-0.6,0.4
			c-4.7,2.8-7,3.1-7.6,3.1H3.5c0-0.9,0.4-3.1,2.7-7c0.1-0.2,0.3-0.4,0.4-0.6c-0.7-1.1-1.4-2.3-1.8-3.5C0.5,32.9-1.1,38.2,1,40.3
			c0.6,0.6,1.5,0.9,2.6,0.9c2.7,0,6.6-1.7,11.1-4.7c0.6-0.4,1.2-0.8,1.8-1.2c1.4,0.4,2.8,0.6,4.3,0.6c1.4,0,2.8-0.2,4.1-0.6
			c0.6,0.4,1.2,0.8,1.8,1.2c4.5,2.9,8.4,4.6,11.1,4.6c1.1,0,2-0.3,2.6-0.9C42.4,38.2,40.8,33,36.7,26.7"/>
		<path class="st0" d="M37.7,3.4L37.7,3.4c0.1,0.9-0.3,3.1-2.6,7c-0.1,0.1-0.2,0.3-0.2,0.4c-0.6,1-1.3,2.1-2.1,3.2c0,0,0,0,0,0
			c-0.3,0.5-0.7,0.9-1.1,1.4c0.5,0.7,0.8,1.5,0.8,2.4c0,2.4-1.9,4.3-4.3,4.3c-0.7,0-1.3-0.1-1.8-0.4c-0.6,0.7-1.2,1.3-1.9,2
			c-0.5,0.5-1,1-1.4,1.4c2.7,2.4,5.4,4.5,7.9,6.1c0.1,0.1,0.3,0.2,0.4,0.3c2.9-2.8,4.6-6.7,4.6-11c0-1.5-0.2-3-0.6-4.3
			c0.4-0.6,0.8-1.2,1.2-1.8c4.1-6.2,5.6-11.4,3.6-13.5C39.7,0.3,38.8,0,37.7,0c-2.6,0-6.5,1.6-10.9,4.5c1.3,0.5,2.4,1.1,3.5,1.8
			C34.9,3.6,37.1,3.4,37.7,3.4"/>
	</g>
</g>
</svg>
