<?xml version="1.0" encoding="utf-8"?>
<!-- Generator: Adobe Illustrator 16.0.0, SVG Export Plug-In . SVG Version: 6.00 Build 0)  -->
<!DOCTYPE svg PUBLIC "-//W3C//DTD SVG 1.1//EN" "http://www.w3.org/Graphics/SVG/1.1/DTD/svg11.dtd">
<svg version="1.1" id="Capa_1" xmlns="http://www.w3.org/2000/svg" xmlns:xlink="http://www.w3.org/1999/xlink" x="0px" y="0px"
	 width="32px" height="32px" viewBox="0 0 32 32" enable-background="new 0 0 32 32" xml:space="preserve">
<path fill="#5BBEFF" d="M21.357,24.5H10.643C8.91,24.5,7.5,23.09,7.5,21.357V10.643C7.5,8.91,8.91,7.5,10.643,7.5h10.714
	c1.732,0,3.143,1.41,3.143,3.143v10.714C24.5,23.09,23.09,24.5,21.357,24.5z M10.643,9.5c-0.63,0-1.143,0.513-1.143,1.143v10.714
	c0,0.63,0.513,1.143,1.143,1.143h10.714c0.63,0,1.143-0.513,1.143-1.143V10.643c0-0.63-0.513-1.143-1.143-1.143H10.643z"/>
</svg>
