<?xml version="1.0" standalone="no"?>
<!DOCTYPE svg PUBLIC "-//W3C//DTD SVG 1.1//EN" "http://www.w3.org/Graphics/SVG/1.1/DTD/svg11.dtd">
<svg xmlns="http://www.w3.org/2000/svg">
<metadata>Generated by Fontastic.me</metadata>
<defs>
<font id="bbva-icons" horiz-adv-x="512">
<font-face font-family="bbva-icons" units-per-em="512" ascent="480" descent="-32"/>
<missing-glyph horiz-adv-x="512" />

<glyph glyph-name="add-notes" unicode="&#99;" d="M118 276l0 39 138 0-39-39z m0 118l236 0-39-40-197 0z m255-99c14 0 28-1 41-5l0 183c0 10-9 19-20 19l-20 0-20-19-19 0 0 19-20 0-20-19-19 0 0 19-20 0-20-19-19 0 0 19-20 0-20-19-19 0 0 19-20 0-20-19-20 0 0 19-19 0c-11 0-20-9-20-19l0-434c0-10 9-19 20-19l19 0 20 19 20 0 0-19 20 0 19 19 20 0 0-19 20 0 19 19 14 0c-21 27-34 62-34 99 0 87 70 157 157 157z m50-167l-39 0 0-50-20 0 0 50-49 0 0 19 49 0 0 49 20 0 0-49 59 0z m-49 128c-65 0-118-53-118-118 0-65 53-118 118-118 65 0 118 53 118 118 0 65-53 118-118 118z"/>
<glyph glyph-name="address-book" unicode="&#100;" d="M374 443l0-345-256 0c-11 0-20-8-20-19 0-11 9-20 20-20l296 0 0 374 39 0 0-413-335 0c-33 0-59 26-59 59l0 98 39 0 0 40-39 0 0 59 39 0 0 39-39 0 0 59 39 0 0 40-39 0 0 19c0 33 27 59 59 59l296 0-40 0z m-216-187l0-39 118 0 39 39z"/>
<glyph glyph-name="alarm" unicode="&#101;" d="M344 139l87 88c28 28 43 65 44 103 0 31-9 60-26 84l43 44-34 34-43-43c-25 18-54 28-86 28-38-1-74-17-102-45-6-6-73-73-87-88l-113-30c-8-2-10-8-4-14l85-84c0-1-1-1-1-2-29-29-29-76 0-105 28-28 75-28 104 0 0 1 1 1 1 2l86-88c6-6 12-4 14 4z m-226 136l48 9 120-121-13-44z"/>
<glyph glyph-name="alphabetize" unicode="&#102;" d="M99 226l28 81 0 0 28-81z m5 147l49 0 83-233-50-8-19 57-81 0-18-53-48 0z m379-193l8-42-192 0 0 36 123 156-111 0-8 43 184 0 0-37-120-156z m-160 95l-20-39-78 0 0 39z"/>
<glyph glyph-name="bizum" unicode="&#103;" d="M164 324c17-13 41-9 53 8l45 63c12 17 8 41-9 53-17 13-40 9-53-8l-44-62c-13-18-9-42 8-54z m184-136c-17 13-41 9-53-8l-44-63c-13-17-9-41 8-53 17-13 40-9 53 8l44 62c13 18 9 42-8 54z m70-99c-17 13-41 9-53-8-13-17-9-41 8-54 17-12 41-9 53 9 12 17 9 41-8 53z m-42 269c12 17 8 41-9 54-17 12-40 8-53-9l-178-249c-12-17-8-41 9-54 17-12 40-8 53 9z m-229 73c13 17 9 41-8 54-17 12-41 9-53-9-12-17-9-41 8-53 17-13 41-9 53 8z"/>
<glyph glyph-name="app-wallet" unicode="&#104;" d="M242 295l34 59-197 0c-11 0-20-8-20-19l0-40z m-23-39l-160 0 0-157c0-11 9-20 20-20l39 0z m-199 118c0 11 9 20 19 20l434 0c10 0 19-9 19-20l0-315c0-11-9-20-19-20l-434 0c-10 0-19 9-19 20z m374-197c22 0 39 18 39 40 0 21-17 39-39 39-22 0-40-18-40-39 0-22 18-40 40-40z m-335 256c0 11 9 20 20 20l354 0c11 0 20-9 20-20l0-19-394 0z"/>
<glyph glyph-name="apple-store" unicode="&#105;" d="M332 481c0-11-2-23-8-37-5-13-13-25-25-37-9-9-19-16-29-19-6-2-15-3-27-4 0 26 7 49 20 69 14 19 36 32 68 39 0-2 1-4 1-6 0-1 0-3 0-5m-82-108c8 0 21 3 39 9 18 6 33 9 46 9 22 0 41-6 57-17 10-7 19-16 28-27-14-12-24-22-30-32-12-16-18-35-18-55 0-22 6-42 19-60 12-18 26-29 42-34-6-21-17-44-33-67-23-35-46-53-69-53-9 0-21 3-37 9-16 6-30 8-41 8-11 0-24-3-38-9-15-6-27-9-36-9-27 0-54 24-80 70-27 46-40 91-40 135 0 41 10 75 30 100 20 26 46 39 77 39 13 0 29-3 47-8 19-5 31-8 37-8"/>
<glyph glyph-name="filled-diagonal" unicode="&#106;" d="M39 453c0 11 9 20 20 20l394 0c11 0 20-9 20-20l0-394c0-11-9-20-20-20l-394 0c-11 0-20 9-20 20z m335-256l0 177-177 0 0-39 107 0-167-170 56 0 142 140 0-108z"/>
<glyph glyph-name="filled-down" unicode="&#107;" d="M276 177l69 69 29-29-118-119 0 40 0-40-118 119 29 29 69-69 0 197 40 40z m-20-157c131 0 236 105 236 236 0 131-105 236-236 236-131 0-236-105-236-236 0-131 105-236 236-236z"/>
<glyph glyph-name="filled-up" unicode="&#108;" d="M236 335l-69-69-29 29 118 119 0-40 0 40 118-119-29-29-69 69 0-197-40-40z m20 157c-131 0-236-105-236-236 0-131 105-236 236-236 131 0 236 105 236 236 0 131-105 236-236 236z"/>
<glyph glyph-name="filled-right" unicode="&#109;" d="M256 492c-131 0-236-105-236-236 0-131 105-236 236-236 131 0 236 105 236 236 0 131-105 236-236 236z m10-147l29 29 119-118-119-118-29 29 69 69-237 0 40 40 197 0z"/>
<glyph glyph-name="arrow-left" unicode="&#110;" d="M200 433l-180-177 181-177 41 41-111 109 306 0 55 54-361 0 111 109z"/>
<glyph glyph-name="simple-down" unicode="&#111;" d="M379 300l-123-123 0 59 92 92z m-212 25l89-89 0-59-118 118z"/>
<glyph glyph-name="simple-filled-down" unicode="&#112;" d="M20 256c0 131 105 236 236 236 131 0 236-105 236-236 0-131-105-236-236-236-131 0-236 105-236 236z m264-51l83 84-27 27-84-83-84 83-27-27 111-112z"/>
<glyph glyph-name="simple-left" unicode="&#113;" d="M305 345l-88-89-59 0 118 118z m0-178l-88 89-59 0 118-118z"/>
<glyph glyph-name="simple-right" unicode="&#114;" d="M207 345l88-89 59 0-118 118z m0-178l88 89 59 0-118-118z"/>
<glyph glyph-name="simple-up" unicode="&#115;" d="M379 232l-123 122 0-59 92-92z m-212-25l89 88 0 59-118-118z"/>
<glyph glyph-name="atm" unicode="&#116;" d="M414 315l0-256c0-11-9-20-20-20l-276 0c-11 0-20 9-20 20l0 256-78 0 0 158 472 0 0-158z m0 39l39 0 0 79-394 0 0-79 39 0 0 40 316 0z m-99 40l0-256 39-40 0 296z m-157-158l0-98 39-40 0 138z"/>
<glyph glyph-name="audio" unicode="&#117;" d="M316 295l41 42c47-46 47-121 0-167l-41 42c23 23 23 60 0 83z m83 84l42 42c93-93 93-243 0-335l-42 42c70 69 70 182 0 251z m-301-25l142 115c9 7 16 3 16-8l0-410c0-11-7-15-16-8l-142 115-78 0c-11 0-20 9-20 19l0 158c0 11 9 19 20 19z"/>
<glyph glyph-name="baby-bottle" unicode="&#118;" d="M351 319c13 0 23-11 23-24l0-263c0-7-5-12-12-12l-212 0c-7 0-12 5-12 12l0 86 59 0 39 40-98 0 0 39 59 0 39 39-98 0 0 59c0 13 10 24 23 24z m-174 35c-11 0-19 9-19 20 0 11 8 20 19 20l1 0c3 37 27 67 59 76-1 1-1 2-1 3l0 19c0 11 9 20 20 20 11 0 20-9 20-20l0-19c0-1 0-2-1-3 32-9 56-39 59-76l1 0c11 0 19-9 19-20 0-11-8-20-19-20z"/>
<glyph glyph-name="balance" unicode="&#119;" d="M456 96c-47-59-119-96-200-96-135 0-245 104-255 236l58 11c5-105 91-188 197-188 64 0 122 31 158 79l-40 39 138 20-20-138z m-400 320c47 59 119 96 200 96 135 0 245-104 255-236l-59-6c-7 102-92 183-196 183-64 0-122-31-158-79l40-39-138-20 20 138z m180-257c-16 1-31 6-44 12l6 34c16-10 37-17 56-17 18 0 30 8 30 23 0 14-7 20-36 32-38 16-53 28-53 58 0 26 16 44 41 51l0 42 40-20 0-21c13-1 24-5 34-10l-5-34c-15 9-31 15-47 15-19 0-27-9-27-20 0-13 6-18 34-30 40-16 55-29 55-59 0-30-18-49-44-55l0-42-40 20z"/>
<glyph glyph-name="bank" unicode="&#120;" d="M39 39l0 40 434 0 0-40z m216 453l218-118 0-39-434 0 0 39z m-176-374l0 177 79 0 0-177z m138 0l0 177 78 0 0-177z m137 0l0 177 79 0 0-177z"/>
<glyph glyph-name="barcode" unicode="&#121;" d="M394 138l39 0 0 236-39 0z m-79 79l39 0 0 157-39 0z m0-79l39 0 0 39-39 0z m-79 79l40 0 0 157-40 0z m0-79l40 0 0 39-40 0z m-78 79l39 0 0 157-39 0z m0-79l39 0 0 39-39 0z m-79 0l39 0 0 236-39 0z m402 295l-450 0c-6 0-11-4-11-10l0-334c0-6 5-10 11-10l450 0c6 0 11 4 11 10l0 334c0 6-5 10-11 10z"/>
<glyph glyph-name="basket" unicode="&#122;" d="M374 118l-39 26 0 92 39 0z m-98 0l-40 26 0 92 40 0z m-20 318c45 0 78-22 79-101l-156 0c1 79 34 101 77 101z m-79-318l-39 26 0 92 39 0z m303 217l-104 0c-1 98-50 138-120 138-68 0-117-40-118-138l-106 0c-8 0-13-8-12-16l38-266c1-7 8-14 16-14l363 0c8 0 15 6 16 13l39 267c1 8-4 16-12 16z"/>
<glyph glyph-name="bbva-business-partner" unicode="&#65;" d="M331 225l-75 0 0 173 78 0c37 0 49-29 31-55l-9-13c61-30 42-105-25-105m109 214c70-70 70-185 0-255-71-71-184-71-255 0-70 70-70 185 0 255 71 71 184 71 255 0z m-176-340c27-7 55-7 82-3-6-8-12-16-19-23-71-71-184-71-255 0-70 70-70 185 0 255 8 8 15 14 23 20-4-28-3-56 3-83-29-47-24-109 17-150 40-40 102-46 149-16z m51 224l15 23c4 6 5 10 5 14 0 11-10 20-21 20l-24 0 0-137 13 0c22 0 39 12 39 40 0 23-11 36-27 40z"/>
<glyph glyph-name="bbva-contigo" unicode="&#66;" d="M98 98l-78-78 0 413c0 11 9 20 19 20l434 0c10 0 19-9 19-20l0-315c0-11-9-20-19-20z m166 79c76 0 99 85 28 120l10 14c22 30 7 63-35 63l-90 0 0-197z m-19 111c18-4 31-19 31-45 0-32-19-46-44-46l-15 0 0 157 27 0c13 0 24-11 24-24 0-4-1-9-5-15z"/>
<glyph glyph-name="bbva-office" unicode="&#67;" d="M453 294c-1-176-181-290-181-290-9-5-23-5-32 1 0 0-180 113-181 289 0 0 0 0 0 1 0 108 88 196 197 196 109 0 197-88 197-196 0-1 0-1 0-1z m-266-109l87 0c76 0 99 85 28 120l10 14c22 30 7 63-35 63l-90 0z m85 138l-17-27c18-4 31-19 31-45 0-32-19-46-45-46l-15 0 0 157 28 0c13 0 24-11 24-24 0-4-1-9-6-15z"/>
<glyph glyph-name="block" unicode="&#68;" d="M152 113c29-22 65-34 104-34 98 0 177 79 177 177 0 39-12 75-34 105z m-40 40l248 247c-29 21-65 33-104 33-98 0-177-79-177-177 0-38 12-74 33-103z m144-133c-131 0-236 105-236 236 0 131 105 236 236 236 131 0 236-105 236-236 0-131-105-236-236-236z"/>
<glyph glyph-name="blog-filled" unicode="&#69;" d="M394 156l-126 0 0 120 59 76 57 0-61-78 71 0z m-150 0l-126 0 0 120 60 76 56 0-60-78 70 0z m12 336c-130 0-236-106-236-236 0-130 106-236 236-236 130 0 236 106 236 236 0 130-106 236-236 236z"/>
<glyph glyph-name="bluetooth" unicode="&#70;" d="M231 492l0-189-93 81 0-57 85-72-85-75 0-52 93 81 0-189 163 142-109 94 109 94z m42-188l0 96 57-50-57-51z m0-99l0 6 57-49-57-50z"/>
<glyph glyph-name="bonus-accounts" unicode="&#71;" d="M0 158l433 0 0 275-433 0z m59 216l118 0-39-39-79 0z m201-87l-43 34 56 4 22 48 23-48 56-4-43-34 13-52-49 28-48-28z m213 28l39 39 0-275-473 0 40 39 394 0z"/>
<glyph glyph-name="book" unicode="&#72;" d="M138 414l157 0-39-40-118 0z m276 19l0-374c-2 0-186 0-290 0-34 0-34 39 0 39l250 0 0 394-267 0c-6-2-12-3-17-6-19-9-29-24-31-45 0-1 0-2 0-2 0-106 0-260 0-366 0-25 18-46 43-52 4-1 9-1 14-1 114 0 223 0 337 0l0 413z"/>
<glyph glyph-name="bread-loaf" unicode="&#73;" d="M454 454c-40 40-135 13-228-60l108 0-32-40-122 0c-4-3-7-7-11-11-10-9-18-19-27-28l133 0-32-39-133 0c-10-13-18-27-26-40l115 0-33-39-103 0c-28-60-32-112-5-139 48-48 176 1 285 111 110 109 159 237 111 285"/>
<glyph glyph-name="butcher-knife" unicode="&#74;" d="M137 114c-10-10-26-10-36 0-10 9-10 26 0 36 10 10 26 10 36 0 10-10 10-27 0-36z m-70 38l181 181 132-132-201-201-112 112c-11 11-11 29 0 40z m377 331c15-15 7-37 7-37l-135-135-44 46 0 0 0 1 129 128c0 1 1 2 2 2l3 3c0 0 23 6 38-8z"/>
<glyph glyph-name="cake" unicode="&#75;" d="M412 232l-319-73 0 40 338 78z m0-82l-319-73 0 41 338 77z m41 179l0-193c0-5-4-10-10-12l-369-84c-8-2-15 4-15 12l0 203c0 3 1 6 4 8l173 131 14-2c0-2-1-5-1-8 0-28 22-50 50-50 25 0 46 20 49 45 4-1 8-2 12-3 67-21 93-47 93-47z m-154 25c-17 0-30 13-30 30 0 16 13 29 30 29 16 0 29-13 29-29 0-17-13-30-29-30z m7 60c-1 0-1 0-1 0 0 0-10 19-10 39 0 20 25 58 25 58 0 0 18-34 10-54-1-3-3-6-4-9 0 0 0 0 0 1 15 14 59 23 59 23 0 0-12-36-32-45-19-9-47-13-47-13 0 0 0 0 0 0z"/>
<glyph glyph-name="calendar" unicode="&#76;" d="M414 433l39 0c11 0 20-9 20-19l0-355c0-11-9-20-20-20l-394 0c-11 0-20 9-20 20l0 355c0 10 9 19 20 19l39 0 0 40 40 0 0-40 236 0 0 40 40 0z m-316-59l0-39 276 0 40 39z m20-157l0-40 40 0 0 40z m79 0l0-40 39 0 0 40z m79 0l0-40 39 0 0 40z m78 0l0-40 40 0 0 40z m-157 78l0-39 39 0 0 39z m79 0l0-39 39 0 0 39z m78 0l0-39 40 0 0 39z m-236-157l0-40 40 0 0 40z m79 0l0-40 39 0 0 40z m79 0l0-40 39 0 0 40z"/>
<glyph glyph-name="camera" unicode="&#77;" d="M197 453l177 0 0-59-236 0z m-177-79c0 11 9 20 19 20l434 0c10 0 19-9 19-20l0-295c0-11-9-20-19-20l-434 0c-10 0-19 9-19 20z m59-39l0-40 79 0 39 40z m246-237c71 0 128 58 128 128 0 71-57 128-128 128-71 0-128-57-128-128 0-70 57-128 128-128z m89 128c0-3-1-6-1-9l-40 0c1 3 1 6 1 9 0 28-22 50-49 50-3 0-7-1-10-1l0 40c3 0 7 0 10 0 49 0 89-40 89-89z"/>
<glyph glyph-name="car" unicode="&#78;" d="M384 197c-16 0-30 13-30 29 0 17 14 30 30 30 16 0 30-13 30-30 0-16-14-29-30-29z m-256 0c-16 0-30 13-30 29 0 17 14 30 30 30 16 0 30-13 30-30 0-16-14-29-30-29z m10 217l236 0 30-99-296 0z m333-99l-23 0-39 134c0 2-3 4-5 4l-294 0c-3 0-5-2-6-4l-41-134-22 0c-12 0-21-10-21-21l0-22c0-12 9-16 21-16l18 0 0-175c0-12 10-22 22-22l24 0c12 0 13 10 13 22l0 17 256 0 0-17c0-12 20-22 31-22l22 0c12 0 26 10 26 22l0 175 18 0c12 0 21 4 21 16l0 22c0 11-9 21-21 21z"/>
<glyph glyph-name="car-bank" unicode="&#79;" d="M463 258l19 0c10 0 18-9 18-19l0-19c0-10-8-17-18-17l-15 0 0-145c0-10-12-19-22-19l-19 0c-10 0-18 9-18 19l0 15-219 0 0-15c0-10-8-19-18-19l-21 0c-10 0-18 9-18 19l0 145-15 0c-10 0-19 7-19 17l0 19c0 10 9 19 19 19l19 0 34 113c1 2 3 3 5 3l250 0c2 0 4-1 5-3z m-443 234l492 0 0-43-449 0 0-410-43 0z m384-344c16 0 29 13 29 29 0 17-13 30-29 30-17 0-30-13-30-30 0-16 13-29 30-29z m-209 0c16 0 29 13 29 29 0 17-13 30-29 30-16 0-30-13-30-30 0-16 14-29 30-29z m4 193l-25-83 251 0-25 83z"/>
<glyph glyph-name="car-moons" unicode="&#80;" d="M393 195c-17 0-30 13-30 30 0 16 13 29 30 29 16 0 29-13 29-29 0-17-13-30-29-30l0 0z m-265 1c-16 0-30 13-30 30 0 16 14 29 30 29 16 0 29-13 29-29 0-17-13-30-29-30l0 0z m10 217l236 0 30-99-296 0z m333-99l-23 0-39 134c-1 2-3 4-5 4l-295 0c-2 0-4-2-5-4l-41-134-22 0c-12 0-21-9-21-21l0-22c-1-12 9-22 21-22l18 0 0-169c0-12 9-22 21-22l25 0c12 0 21 10 21 22l0 18 258 0 0-18c0-12 9-22 21-22 0 0 0 0 0 0l22 0c12 0 26 10 26 22l0 169 18 0c12 0 21 10 21 22l0 22c0 12-9 21-21 21z m-256 31l39 39-102 0-11-39m230 0l-12 39-66 0-38-39"/>
<glyph glyph-name="car-plus" unicode="&#81;" d="M89 315l29 99 236 0 30-99z m19-118c-16 0-29 13-29 29 0 17 13 30 29 30 17 0 30-13 30-30 0-16-13-29-30-29z m315 60c-70 0-128-57-128-128 0-11 2-21 4-31l-193 0 0-17c0-12-8-22-20-22l-25 0c-12 0-22 10-22 22l0 169-17 0c-12 0-22 10-22 22l0 22c0 11 10 21 22 21l22 0 40 134c1 2 3 4 6 4l294 0c3 0 5-2 6-4l39-134 22 0c12 0 22-10 22-21l0-22c0-9-6-17-14-20-11 3-23 5-36 5z m17-112l64 0 0-32-64 0 0-64-33 0 0 64-64 0 14 32 50 0 0 64 33 0z"/>
<glyph glyph-name="card" unicode="&#82;" d="M20 414c0 10 9 19 19 19l434 0c10 0 19-9 19-19l0-316c0-10-9-19-19-19l-434 0c-10 0-19 9-19 19z m0-60l0-39 354 0 40 39z m256-157l0-39 98 0 40 39z"/>
<glyph glyph-name="cash" unicode="&#83;" d="M140 315l-61 0-40-39 101 0c-1 6-2 13-2 19 0 7 1 14 2 20z m153 0c2-6 2-13 2-20 0-6 0-13-2-19l61 0 40 39z m219 39l0-275-473 0 40 39 394 0 0 197z m-512-196l0 275 433 0 0-275z m217 98c21 0 39 18 39 39 0 22-18 40-39 40-22 0-40-18-40-40 0-21 18-39 40-39z"/>
<glyph glyph-name="cash-register" unicode="&#84;" d="M371 371l38 37 0 2-125 0 0-39z m-117-26l181 0 0 88-181 0z m156-109c-14 0-25 11-25 25 0 14 11 25 25 25 14 0 25-11 25-25 0-14-11-25-25-25z m-259-116l103 0 0 40-103 0z m-62 0l39 0 0 40-39 0z m125 63l40 0 0 40-40 0z m-63 0l40 0 0 40-40 0z m-62 0l39 0 0 40-39 0z m125 63l40 0 0 40-40 0z m-63 0l40 0 0 40-40 0z m-62 0l39 0 0 40-39 0z m383 22c0 1 1 2 1 4l0 189c0 6-6 12-12 12l-237 0c-6 0-12-6-12-12l0-126-161 0c-6 0-12-6-12-12l0-272c0-6 6-12 12-12l409 0c7 0 12 6 12 12z"/>
<glyph glyph-name="cash-up" unicode="&#85;" d="M233 368l-26-27-52 0c-1-2-1-4-1-6 0-2 0-5 1-7l78 0-26-26-44 0c12-20 33-33 57-33 18 0 35 7 47 19l19-18c-17-17-40-28-66-28-51 0-92 42-92 93 0 2 0 4 0 6l0 0 0 1c4 47 44 85 92 85 26 0 49-10 66-27l-19-19c-12 12-29 20-47 20-24 0-45-14-57-33z m181-176c0-10-10-15-20-15l-315 0-79-79 0 377c0 9 8 17 18 17l376 0c10 0 20-8 20-17z m86 123c7 0 12-6 12-13l0-282-58 59-244 0c-7 0-13 9-13 16l0 43 207 0c28 0 49 22 49 48l0 129z"/>
<glyph glyph-name="chat" unicode="&#86;" d="M98 98l-78-78 0 394c0 10 9 19 19 19l434 0c10 0 19-9 19-19l0-296c0-11-9-20-19-20z m0 178l0-40 158 0 39 40z m0 78l0-39 237 0 39 39z"/>
<glyph glyph-name="chat-conversation" unicode="&#87;" d="M315 374l-236 0 0 40 275 0z m-79-79l-157 0 0 40 197 0z m178-107c0-10-10-15-20-15l-320 0-74-75 0 377c0 9 8 17 18 17l376 0c10 0 20-8 20-17z m86 127c7 0 12-6 12-13l0-282-58 59-244 0c-7 0-13 9-13 16l0 43 207 0c28 0 49 22 49 48l0 129z"/>
<glyph glyph-name="checkmark" unicode="&#88;" d="M407 394l-223-223-97 98-28-28 125-126 30 30 221 221z"/>
<glyph glyph-name="checkmark-filled" unicode="&#89;" d="M256 20c-131 0-236 105-236 236 0 131 105 236 236 236 131 0 236-105 236-236 0-131-105-236-236-236z m-49 187l-59 59-30-30 89-88 187 187-30 29z"/>
<glyph glyph-name="children" unicode="&#90;" d="M128 354c-22 0-39 18-39 40 0 22 17 39 39 39 22 0 39-17 39-39 0-22-17-40-39-40z m234 0c-22 0-39 18-39 40 0 22 17 39 39 39 22 0 39-17 39-39 0-22-17-40-39-40z m51 24c0 15-7 29-17 39 24-4 42-23 44-47l-27 0c0 2 0 5 0 8z m-101 0c0-3 0-6 0-8l-27 0c2 24 20 43 44 47-10-10-17-24-17-39z m-292-181l0 138 29 0 0-109z m303 138l78 0 59-158-39 0 0-98-40 0 0 98-39 0 0-98-39 0 0 98-40 0z m137-108l-39 108 30 0 41-118z m-184 9l-40 0 4 10-36 89 30 0 21-49 18 49 30 0-33-84z m-207-39l0 138 118 0 0-256-39 0 0 118-40 0 0-118-39 0z"/>
<glyph glyph-name="clock" unicode="&#48;" d="M256 20c-131 0-236 105-236 236 0 131 105 236 236 236 131 0 236-105 236-236 0-131-105-236-236-236z m20 354l-40 40 0-178 99 0 39 40-98 0z"/>
<glyph glyph-name="cloud" unicode="&#49;" d="M491 207c0 70-57 128-127 128-3 0-6 0-9-1-29 59-89 99-158 99-2 0-4 0-6 0-1 0-2 0-4 0-93 0-168-79-168-177 0-98 75-177 168-177l186 0c57 0 104 43 115 99 2 10 3 19 3 29"/>
<glyph glyph-name="coffee" unicode="&#50;" d="M20 32l0 47 433 0 0-47z m460 441c7 0 12-10 12-17l0-148c0-7-5-13-12-13l-86 0 0-92c0-56-52-85-108-85l-146 0c-55 0-101 29-101 85l0 270z m-382-154l40-43 0 138-40 0z m296 16l59 0 0 98-59 0z"/>
<glyph glyph-name="color" unicode="&#51;" d="M95 233l180 148 121-148z m354 8c7-8 4-21-4-28l-220-181c-8-7-19-5-26 3l-155 188c-7 8-6 19 2 26l200 164-55 67 36 30 67-81 146-177z m-41-169c0 33 36 58 42 90 6-32 42-57 42-90 0-24-19-44-42-44-23 0-42 20-42 44z"/>
<glyph glyph-name="compass" unicode="&#52;" d="M256 492c131 0 236-105 236-236 0-131-105-236-236-236-131 0-236 105-236 236 0 131 105 236 236 236z m41-277l97 179-179-96-97-180z m-62 20c-11 12-11 30 0 42 12 11 30 11 42 0 11-12 11-30 0-42-12-11-30-11-42 0z"/>
<glyph glyph-name="configuration" unicode="&#53;" d="M256 354c27 0 49 22 49 50 0 27-22 49-49 49-27 0-49-22-49-49 0-28 22-50 49-50m0-49c-27 0-49-22-49-49 0-27 22-49 49-49 27 0 49 22 49 49 0 27-22 49-49 49m0-147c-27 0-49-22-49-50 0-27 22-49 49-49 27 0 49 22 49 49 0 28-22 50-49 50"/>
<glyph glyph-name="copy" unicode="&#54;" d="M453 39l-335 0 40 40 275 0 0 275 40 40 0-335c0-11-9-20-20-20z m-414 414c0 11 9 20 20 20l315 0c11 0 20-9 20-20l0-315c0-11-9-20-20-20l-315 0c-11 0-20 9-20 20z"/>
<glyph glyph-name="copy-card" unicode="&#55;" d="M473 98l0 276 39 40 0-355-473 0 40 39z m-473 335c0 11 9 20 20 20l393 0c11 0 20-9 20-20l0-275c0-11-8-20-20-20l-393 0c-11 0-20 9-20 20z m0-39l0-40 315 0 39 40z m236-158l0-39 79 0 39 39z"/>
<glyph glyph-name="couple" unicode="&#56;" d="M323 394l78 0 59-237-39 0 0-137-40 0 0 137-39 0 0-137-39 0 0 137-40 0z m169-156l-32 10-39 146 30 0z m-216 10l-40 0 4 14-36 132 30 0 21-72 18 72 30 0-33-124z m-207 146l118 0 0-374-39 0 0 197-40 0 0-197-39 0z m59 20c-22 0-39 17-39 39 0 22 17 39 39 39 22 0 39-17 39-39 0-22-17-39-39-39z m-108-197l0 177 29 0 0-148z m315 208l-13 0c0 21-8 67 39 67 1 0 1 0 1 0 0 0 0 0 0 0 0 0 0 0 1 0 23 0 32-12 36-26 2-4 2-9 2-13 0-1 0-1 0-2 1-10 0-19 0-26l-12 0c-7-7-16-11-27-11-11 0-20 4-27 11z"/>
<glyph glyph-name="currency-exchange" unicode="&#57;" d="M352 171l0-33-1 0-30 14 0 17c-16 1-30 5-42 11l-2 1-1 0 0 1 0 2 4 23 1 4 0 2 2-1 4-2c14-9 30-14 45-14 17 0 28 8 28 21 0 13-6 18-32 29-38 15-50 27-50 51 0 24 17 41 43 46l0 31 2 0 29-14 0-17c12-1 21-4 29-8l2-1 2-1-1-1 0-2-4-22-1-4 0-3-3 2-3 2c-11 7-24 12-36 12-16 0-25-7-25-18 0-11 6-16 32-26 38-16 49-29 49-54 0-24-15-42-41-48m-17 262c98 0 177-79 177-177 0-98-79-177-177-177-98 0-177 79-177 177 0 98 79 177 177 177z m-184-292c15-23 34-44 56-60-10-1-20-2-30-2-98 0-177 79-177 177 0 98 79 177 177 177 10 0 20-1 30-2-22-16-41-37-56-60-52-12-92-59-92-115 0-56 40-103 92-115z"/>
<glyph glyph-name="deactivate-card" unicode="&#33;" d="M394 433l59 59 0-59-414-413 0 59c-10 0-19 9-19 19l0 316c0 10 9 19 19 19z m-118-118l39 39-295 0 0-39z m216 99l0-316c0-10-9-19-19-19l-315 0z m-216-217l0-39 98 0 40 39z"/>
<glyph glyph-name="desktop" unicode="&#34;" d="M0 39l0 40 512 0 0-40z m20 414c0 11 9 20 19 20l434 0c10 0 19-9 19-20l0-315c0-11-9-20-19-20l-434 0c-10 0-19 9-19 20z m39-295l394 0 0 275-394 0z m335 236l-197-197-99 0 0 197z"/>
<glyph glyph-name="deposit" unicode="&#35;" d="M118 197l0 118 20 0 39 39-59 0 0 40 276 0 0-276-276 0 0 40 20 0 39 39z m-79 256c0 11 9 20 20 20l394 0c11 0 20-9 20-20l0-394c0-11-9-20-20-20l-394 0c-11 0-20 9-20 20z m40-20l0-354 354 0 0 354z m236-216c22 0 39 17 39 39 0 22-17 39-39 39-22 0-39-17-39-39 0-22 17-39 39-39z"/>
<glyph glyph-name="diamond" unicode="&#36;" d="M80 453l-24-59 200 0-39-40-173 0-24-78 237-237 235 237-59 177z"/>
<glyph glyph-name="digital-card" unicode="&#37;" d="M374 414l-39 0 0 39-237 0 0-355 237 0 0 40 39 0 0-99c0-10-9-19-20-19l-275 0c-11 0-20 9-20 19l0 434c0 10 9 19 20 19l275 0c11 0 20-9 20-19z m-177-355c0-11 9-20 20-20 11 0 19 9 19 20 0 11-9 20-19 20-11 0-20-9-20-20z m0 296c0 10 9 19 20 19l236 0c11 0 20-9 20-19l0-158c0-11-9-20-20-20l-236 0c-11 0-20 9-20 20z m0-20l0-40 197 0 39 40z"/>
<glyph glyph-name="digital-press" unicode="&#38;" d="M118 98l276 0 0 335-276 0z m138-59c-11 0-20 9-20 20 0 11 9 20 20 20 11 0 20-9 20-20 0-11-9-20-20-20z m158 453l-315 0c-11 0-20-9-20-19l0-434c0-10 9-19 20-19l315 0c10 0 19 9 19 19l0 434c0 10-9 19-19 19z m-256-374l196 0 0 40-196 0z m0 79l196 0 0 39-196 0z m112 79l84 0 0 39-84 0z m0 78l84 0 0 40-84 0z m-112-78l84 0 0 118-84 0z"/>
<glyph glyph-name="digital-signature" unicode="&#39;" d="M217 39c-11 0-19 9-19 20 0 11 8 20 19 20 11 0 20-9 20-20 0-11-9-20-20-20z m118 59l0 20 39 0 0-79c0-10-8-19-19-19l-276 0c-10 0-20 9-20 19l0 434c0 10 9 19 20 19l276 0c11 0 19-9 19-19l0-40-39 0 0 20-237 0 0-355z m-33 65l151 0 0-25-176 0z m87 163l-44 44 40 40c5 5 13 5 18 0l45-45c5-5 5-13 0-18l-209-209-62 0 0 63 150 150 25-25z"/>
<glyph glyph-name="digital-tv" unicode="&#40;" d="M59 137l394 0 0 237-394 0z m414 276l-198 0 78 79-39 0-59-59-59 59-40 0 79-79-196 0c-10 0-19-9-19-19l0-276c0-11 9-20 19-20l178 0 0-39-99 0 0-40 276 0 0 40-99 0 0 39 178 0c10 0 19 9 19 20l0 276c0 10-9 19-19 19z m-134-122l0-73 12 0c25 0 35 11 35 37 0 25-10 36-35 36z m72-36c0-43-27-58-62-58l-35 0 0 115 35 0c36 0 62-14 62-57z m-281-58l25 0 0 94 37 0-4 21-92 0 0-21 34 0z m130 0l39 115-23 0-28-82 0 0-27 84-24-3 39-114z"/>
<glyph glyph-name="discount" unicode="&#41;" d="M200 158l-59 0 177 196 59 0z m138-1c-22 0-40 17-40 39 0 22 18 40 40 40 21 0 39-18 39-40 0-22-18-39-39-39z m-158 198c22 0 40-18 40-40 0-22-18-40-40-40-22 0-39 18-39 40 0 22 17 40 39 40z m312-36l0 99c0 8-3 15-10 15l-446 0c-8 0-16-7-16-15l0-99c33 0 62-29 62-64 0-36-29-65-62-65l0-99c0-8 8-12 16-12l446 0c7 0 10 4 10 12l0 99c-33 0-62 29-62 65 0 35 29 64 62 64z"/>
<glyph glyph-name="divide-filled" unicode="&#42;" d="M356 236l-238 0 0 40 278 0z m-110-118c-22 0-39 18-39 40 0 21 17 39 39 39 22 0 40-18 40-39 0-22-18-40-40-40z m0 276c22 0 40-18 40-40 0-21-18-39-40-39-22 0-39 18-39 39 0 22 17 40 39 40z m10 98c-131 0-236-105-236-236 0-131 105-236 236-236 131 0 236 105 236 236 0 131-105 236-236 236z"/>
<glyph glyph-name="document-simple" unicode="&#43;" d="M79 473c0 10 9 19 20 19l216 0 118-118 0-335c0-11-9-19-19-19l-316 0c-10 0-19 9-19 19z m259-158l36 38-81 0 0 139-37 0 0-177z"/>
<glyph glyph-name="dollar" unicode="&#44;" d="M236 139l0-21 40-20 0 42c32 7 54 29 54 66 0 36-17 53-64 72-32 13-39 21-39 35 0 14 10 25 31 25 18 0 38-7 54-18l7 40c-13 7-26 11-43 13l0 21-40 20 0-42c-30-7-51-29-51-62 0-36 18-51 62-69 33-15 41-22 41-39 0-18-14-28-34-28-23 0-46 9-65 20l-7-40c16-8 34-13 54-15z m20-119c-131 0-236 105-236 236 0 131 105 236 236 236 131 0 236-105 236-236 0-131-105-236-236-236z"/>
<glyph glyph-name="edit" unicode="&#45;" d="M275 374l39-39 59 0-69 69 63 63c7 7 20 8 28 0l70-71c8-7 8-20 0-28l-328-329-98 0 0 99z m-39-295l237 0 0-40-276 0z"/>
<glyph glyph-name="email" unicode="&#46;" d="M20 414c0 10 9 19 19 19l434 0c10 0 19-9 19-19l0-316c0-10-9-19-19-19l-434 0c-10 0-19 9-19 19z m236-217l197 118 0 59-197-118-197 118 0-59z"/>
<glyph glyph-name="email-open" unicode="&#47;" d="M20 315l220 165c9 7 23 7 32 0l220-165 0-275c0-11-9-20-19-20l-434 0c-10 0-19 9-19 20z m221-184c8-7 22-7 30 0l182 145c0 11-9 19-20 19l-354 0c-11 0-20-9-20-19z"/>
<glyph glyph-name="empty-card" unicode="&#58;" d="M20 414c0 10 9 19 19 19l434 0c10 0 19-9 19-19l0-316c0-10-9-19-19-19l-434 0c-10 0-19 9-19 19z m0-60l0-39 197 0 39 39z m334-216l60 79-40 0 0 137-39-39 0-98-40 0z"/>
<glyph glyph-name="euro" unicode="&#59;" d="M158 246c0 3 0 7 0 10 0 3 0 7 0 10l78 0 40 39-105 0c17 30 49 49 85 49 27 0 52-11 70-28l27 27c-24 25-59 41-97 41-73 0-132-56-137-128l-1 0 1 0c-1-3-1-7-1-10 0-76 62-138 138-138 38 0 73 16 97 41l-27 27c-18-17-43-28-70-28-36 0-68 19-85 49l65 0 40 39z m98-226c-131 0-236 105-236 236 0 131 105 236 236 236 131 0 236-105 236-236 0-131-105-236-236-236z"/>
<glyph glyph-name="executive" unicode="&#60;" d="M256 276c-54 0-99 44-99 98 0 54 45 99 99 99 54 0 99-45 99-99 0-54-45-98-99-98z m62-25c77-19 135-89 135-173l0-39-394 0 0 39c0 84 58 154 135 173 13-7 26-11 42-13l0-2-19-138 39-39 39 39-19 138 0 2c14 2 29 6 42 13z"/>
<glyph glyph-name="express-account" unicode="&#61;" d="M464 315l48 39-49-275-463 0 46 40 383 0z m-415 118l398 0-48-275-399 0z m48-59l-7-39 79 0 46 39z m-17-98l-7-40 236 0 47 40z"/>
<glyph glyph-name="facebook" unicode="&#62;" d="M321 401c-32 0-38-15-38-38l0-49 76 0-10-77-66 0 0-197-79 0 0 197-66 0 0 77 66 0 0 57c0 66 40 102 99 102 28 0 52-2 59-4l0-68z"/>
<glyph glyph-name="facebook-filled" unicode="&#63;" d="M321 349l-27 0c-21 0-24-11-24-25l0-31 48 0-7-49-41 0 0-126-49 0 0 126-44 0 0 49 44 0 0 36c0 42 25 65 62 65 18 0 32-1 38-2z m-65 143c-131 0-236-105-236-236 0-131 105-236 236-236 131 0 236 105 236 236 0 131-105 236-236 236z"/>
<glyph glyph-name="factory" unicode="&#64;" d="M258 235l-57 0 0 38 97 0z m136 0l-57 0 0 38 97 0z m-59 98l0 80-157-80 0 80-158-80 0-235 43 0 0 84c0 8 6 13 13 13l60 0c7 0 13-5 13-13l0-84 344 0 0 315z"/>
<glyph glyph-name="fast-food" unicode="&#91;" d="M59 52l0 7 269 0 0-7c0-18-14-32-32-32l-205 0c-18 0-32 14-32 32z m269 93l0-7-269 0 0 7c0 18 14 32 32 32l205 0c18 0 32-14 32-32z m26-50c0-9-7-16-16-16l-283 0c-8 0-16 7-16 16l0 7c0 9 8 16 16 16l283 0c9 0 16-7 16-16z m-137 299l275 0 0-40-275 0z m157 20l0 59 40 0 0-59z m-112-119l-6 40 197 0-39-315-70 0c8 9 12 21 12 34l0 10c12 6 20 18 20 33l0 7c0 14-8 27-20 33l0 10c0 30-24 54-53 54l-29 0-7 55 87 0 20 39z"/>
<glyph glyph-name="filter" unicode="&#93;" d="M70 394l38 0 0-212 48 48 22-22-89-89-22 22-67 67 22 22 48-48z m126-266l0 49 216 0-19-49z m0 108l0 49 264 0-19-49z m0 158l314 0-18-49-296 0z"/>
<glyph glyph-name="fingerprint" unicode="&#94;" d="M79 217l0 98c0 98 79 177 177 177 98 0 177-79 177-177l0-39-39 39 0 0c0 76-62 138-138 138-76 0-138-62-138-138l0-59z m3-56l36 36 0 0c0-76 62-138 138-138 76 0 138 62 138 138l0 59 39-39 0-20c0-98-79-177-177-177-86 0-157 60-174 141z m76 154c0 54 44 99 98 99 54 0 98-45 98-99l0-118c0-54-44-99-98-99-54 0-98 45-98 99z m39 0l0-118c0-33 26-59 59-59 33 0 59 26 59 59l0 118c0 33-26 59-59 59-33 0-59-26-59-59z m39 0c0 11 9 20 20 20 11 0 20-9 20-20l0-118c0-11-9-20-20-20-11 0-20 9-20 20z"/>
<glyph glyph-name="first-page" unicode="&#95;" d="M356 340l-84-84 84-84-28-27-84 83-28 28 112 111z m-218-202l0 236 39 0 0-236z"/>
<glyph glyph-name="flag" unicode="&#96;" d="M59 473l0-434 59 0 0 176 139 0 38-40 158 0 0 258-118 0-40 40z m59-59l158-158-158 0z"/>
<glyph glyph-name="flower" unicode="&#123;" d="M234 97l0 137c-45 12-78 53-78 101l0 157 3 0 67-66 0 66 3 0 67-66 0 66 3 0 67-67 0-89 0 0 0-1c0-49-34-91-80-102l0-131 148 149c0 0 11-116-25-170-32-47-104-59-123-61l0 0-2 0c-3 0-4-1-4-1l0 1-46 0 0-1c0 0-92 7-128 62-37 54-26 170-26 170z"/>
<glyph glyph-name="fork-knife" unicode="&#124;" d="M335 236l-40 0 0 178c0 0 11 78 99 78l-1-472-59 0z m-109 256l30 0 0-197-39 0 0-275-59 0 0 275-40 0 0 197 30 0 0-118 25 17 0 101 28 0 0-118 25 17z"/>
<glyph glyph-name="frequency" unicode="&#125;" d="M426 118l-52 0 0 94 20-21 0-53 53 0z m-42 136c69 0 126-57 126-126 0-69-57-126-126-126-69 0-126 57-126 126 0 69 57 126 126 126z m-228-144l41 48 39-138-157 0 38 45c-59 43-97 112-97 191 0 131 105 236 236 236 131 0 236-105 236-236 0 0 0 0 0-1-18 16-39 27-62 34-15 82-87 144-174 144-98 0-177-79-177-177 0-61 30-114 77-146z"/>
<glyph glyph-name="gavel" unicode="&#126;" d="M472 83c0 0 6-22-7-36-14-13-34-6-34-6l-194 195-28-28-126 125 98 98 125-125-28-28z m-126 262l-12-12-125 126 11 11c9 9 24 9 33 0l92-92c9-9 10-24 1-33z m-210-176l-89 90c-11 10-10 28 2 40l7 7 125-126-12-11c-9-9-24-9-33 0z m-97-130l0 59 256 0 0-59z"/>
<glyph glyph-name="globe" unicode="&#92;" d="M177 335l0-118-98 118 3 14c-15-28-23-59-23-93 0-102 78-186 177-196l0 78-19 0 0 79-40 0 0 78 99 0 0-59 78 0 0-98-59 0 0-75c90 18 158 98 158 193 0 95-68 175-158 193l0-55-59 0 0-59z m79-315c-131 0-236 105-236 236 0 131 105 236 236 236 131 0 236-105 236-236 0-131-105-236-236-236z"/>
<glyph glyph-name="google-plus" unicode="&#57344;" d="M440 284l0 55-38 0 0-55-52 0 0-40 52 0 0-55 38 0 0 55 52 0 0 40z m-272 5l0-66 84 0c-12-35-45-60-82-60-49 0-89 42-89 93 0 51 40 93 89 93 21 0 41-9 57-22l44 45c-27 26-62 42-101 42-83 0-150-71-150-158 0-87 67-158 150-158 82 0 150 71 150 158 0 11-2 22-4 33z"/>
<glyph glyph-name="google-plus-filled" unicode="&#57345;" d="M20 257c0 130 105 235 235 235 130 0 236-105 236-235 0-130-106-236-236-236-130 0-235 106-235 236z m384-9l37 0 0 28-37 0 0 39-28 0 0-39-39 0 0-28 39 0 0-37 28 0z m-198-100c61 0 109 48 109 109 0 8 0 15-2 23l-108 0 0-46 61 0c-9-25-32-41-60-41-35 0-64 28-64 64 0 35 29 64 64 64 16 0 30-6 42-15l32 31c-20 18-45 29-74 29-60 0-109-49-109-109 0-61 49-109 109-109z"/>
<glyph glyph-name="gradution-cap" unicode="&#57346;" d="M246 453l-246-135 246-134 202 110 0-155 44 0 0 179z m0-314l-156 86 0-90 156-86 157 86 0 90z"/>
<glyph glyph-name="graphics" unicode="&#57347;" d="M39 453c0 11 9 20 20 20l394 0c11 0 20-9 20-20l0-394c0-11-9-20-20-20l-394 0c-11 0-20 9-20 20z m296-197l0-158 79 0 0 237z m-118 79l0-237 78 0 0 316z m-119-158l0-79 79 0 0 158z"/>
<glyph glyph-name="grid-view" unicode="&#57348;" d="M79 354l0 79 79 0 0-79z m138 0l0 79 78 0 0-79z m137 0l0 79 79 0 0-79z m-137-137l0 78 78 0 0-78z m137 0l0 78 79 0 0-78z m-275-138l0 79 79 0 0-79z m138 0l0 79 78 0 0-79z m-138 138l0 78 79 0 0-78z m275-138l0 79 79 0 0-79z"/>
<glyph glyph-name="happy-face" unicode="&#57349;" d="M387 202c-16-58-69-98-131-98-62 0-114 40-130 98-2 7 3 15 11 15l238 0c8 0 14-8 12-15m-224 172c22 0 40-17 40-39 0-22-18-40-40-40-21 0-39 18-39 40 0 22 18 39 39 39m186 0c21 0 39-17 39-39 0-22-18-40-39-40-22 0-40 18-40 40 0 22 18 39 40 39m-93 118c-131 0-236-105-236-236 0-131 105-236 236-236 131 0 236 105 236 236 0 131-105 236-236 236"/>
<glyph glyph-name="hashtag" unicode="&#57350;" d="M102 197l32 118-114 0 59 59 71 0 27 99 59 0-27-99 138 0 27 99 59 0-27-99 67 0 0-59-83 0-32-118 115 0-59-59-72 0-27-99-59 0 27 99-138 0-27-99-59 0 27 99-66 0 0 59z m59 0l138 0 32 118-138 0z"/>
<glyph glyph-name="health" unicode="&#57351;" d="M374 217l-79 0 0-79-78 0 0 79-79 0 0 78 79 0 0 79 78 0 0-79 79 0z m-118 275c-130 0-236-106-236-236 0-131 106-236 236-236 131 0 236 105 236 236 0 130-105 236-236 236z"/>
<glyph glyph-name="heart" unicode="&#57352;" d="M492 346c0 70-53 127-118 127-59 0-109-47-117-109 0 0 0 0-1 0 0 0 0 0 0 0 0 0 0 0 0 0-1 0-1 0-1 0-8 62-58 109-117 109-65 0-118-57-118-127 0-6 0-12 0-18 0-144 236-289 236-289 0 0 236 145 236 289 0 6 0 12 0 18"/>
<glyph glyph-name="help" unicode="&#57353;" d="M300 257c-26-16-26-22-26-55l-39 0c0 9-1 16-1 24 0 25 14 39 31 50 16 10 24 17 24 34 0 13-10 22-28 22-19 0-39-14-50-29l-28 30c17 23 45 41 83 41 45 0 69-25 69-60 0-31-16-46-35-57m-44-139c-16 0-30 13-30 30 0 16 14 29 30 29 16 0 30-13 30-29 0-17-14-30-30-30m0 374c-131 0-236-105-236-236 0-131 105-236 236-236 131 0 236 105 236 236 0 131-105 236-236 236"/>
<glyph glyph-name="hide" unicode="&#57354;" d="M367 406l66 67 0-59-374-375 0 59 40 41c-57 51-79 117-79 117 0 0 59 177 236 177 44 0 80-11 111-27z m-212-212l29 30c-4 9-7 20-7 32 0 44 35 79 79 79 12 0 23-3 32-7l30 29c-18 11-39 17-62 17-65 0-118-53-118-118 0-23 6-44 17-62z m278 160c42-47 59-98 59-98 0 0-59-177-236-177-32 0-59 5-84 15l50 49c11-3 22-5 34-5 65 0 118 53 118 118 0 12-2 23-5 34z m-177-177c44 0 79 35 79 79z"/>
<glyph glyph-name="history" unicode="&#57355;" d="M236 261l0 82 40 39 0-138-1 0-46-45-55 0z m-171 134c43 59 112 97 191 97 131 0 236-105 236-236 0-131-105-236-236-236-106 0-196 70-226 166l57 18c22-73 89-125 169-125 98 0 177 79 177 177 0 98-79 177-177 177-61 0-114-30-146-77l48-41-138-39 0 157z"/>
<glyph glyph-name="home" unicode="&#57356;" d="M59 217l197 157 197-157 0-158c0-11-9-20-20-20l-354 0c-11 0-20 9-20 20z m197-20l0-158 118 0 0 158z m-138-59l59 0 40 39-99 0z m138 354l256-216-39-40-217 178-217-178-39 40z"/>
<glyph glyph-name="hotel" unicode="&#57357;" d="M347 126l-11-10 3-15c0 0 0-1 0-1 0-1-1-2-1-2l0 0c0 0-1 1-1 1l-13 7-13-7c-1 0-1 0-1 1-1 0-1 0-1 1l3 14-11 11c0 0 0 1 0 1 0 0 0 1 0 1l15 2 7 13c0 1 1 1 1 1 0 0 1 0 1-1l7-13 14-2c1 0 1-1 1-1 0 0 0-1 0-1z m-121 132l0-81-59 0 0 217 59 0 0-79 60 0 0 79 59 0 0-217-59 0 0 81z m52-132l-11-10 2-15c1 0 1-1 1-1 0-1-1-2-2-2l0 0c0 0 0 1 0 1l-13 7-14-7c0 0 0 0-1 1 0 0 0 0 0 1l2 14-10 11c-1 0-1 1-1 1 0 0 1 1 1 1l15 2 7 13c0 1 0 1 1 1 0 0 0 0 1-1l6-13 15-2c1 0 1-1 1-1 0 0 0-1 0-1z m-69 0l-11-10 3-15c0 0 0-1 0-1 0-1 0-2-1-2l0 0c0 0 0 1-1 1l-13 7-13-7c-1 0-1 0-1 1-1 0-1 0-1 1l3 14-11 11c0 0 0 1 0 1 0 0 0 1 1 1l15 2 6 13c0 1 1 1 1 1 1 0 1 0 1-1l7-13 15-2c0 0 0-1 0-1 1 0 0-1 0-1z m224 354c0 7-5 12-12 12l-330 0c-7 0-12-5-12-12l0-448c0-7 5-12 12-12l330 0c7 0 12 5 12 12z"/>
<glyph glyph-name="icecream" unicode="&#57358;" d="M139 235l-10 41 255 0-10-41-20 0-87-208c-4-10-17-10-21 0l-89 208z m106 178c-14 7-30 11-46 11-15 0-28-3-41-8 2 42 36 76 79 76 33 0 61-20 73-48-25-2-48-13-65-31z m31-88c0-10-2-20-6-29l-146 0c-4 9-6 19-6 29 0 44 36 79 79 79 44 0 79-35 79-79z m20 0c0 31-14 58-36 76 14 14 34 23 55 23 44 0 79-35 79-79 0-19-6-36-17-49l-86 0c3 9 5 19 5 29z"/>
<glyph glyph-name="id-card" unicode="&#57359;" d="M394 315l-79 0 0 39 119 0z m0-79l-79 0 0 40 119 0z m-101-98l-214 0 0 21c0 46 31 84 73 94 11-5 22-8 34-8 12 0 24 3 34 8 42-10 73-48 73-94z m-107 236c30 0 54-24 54-54 0-29-24-53-54-53-29 0-54 24-54 53 0 30 25 54 54 54z m287 59l-433 0c-11 0-20-9-20-19l0-316c0-10 9-19 20-19l433 0c11 0 19 9 19 19l0 316c0 10-8 19-19 19z"/>
<glyph glyph-name="identify-call" unicode="&#57360;" d="M450 99c5-4 6-11 1-15l-38-37c0-1-1-2-2-2l-4-5 0 0 0 0c-101-6-203 29-280 103-77 75-112 175-106 273l0 0 0 0 5 4c0 1 1 2 2 2l38 37c4 4 11 4 16-1l84-97c4-5 4-13-1-17l-14-15c-1-1-2-1-3-2l-31-30c14-36 36-70 66-99 29-29 65-51 102-64l30 29c1 1 2 2 3 3l15 14c4 5 12 5 17 1z m-109 199l-30-29-83 81 28 27 55-54 154 150 28-28z"/>
<glyph glyph-name="illustration" unicode="&#57361;" d="M394 79l39 0 0 39-39 0z m-40 39l-196 0 0 40-40 0 0 196 40 0 0 40 196 0 0-40 40 0 0-196-40 0z m-275-39l39 0 0 39-39 0z m0 315l39 0 0 39-39 0z m394-40l0 119-119 0 0-40-196 0 0 40-119 0 0-119 40 0 0-196-40 0 0-119 119 0 0 40 196 0 0-40 119 0 0 119-40 0 0 196z m-298-176l62 175 37 0 61-172-37-6-14 42-60 0-13-39z m59 67l41 0-20 59-1 0z"/>
<glyph glyph-name="info" unicode="&#57362;" d="M256 20c-131 0-236 105-236 236 0 131 105 236 236 236 131 0 236-105 236-236 0-131-105-236-236-236z m-20 275l0-137 40-40 0 177z m20 40c16 0 30 13 30 29 0 17-14 30-30 30-16 0-30-13-30-30 0-16 14-29 30-29z"/>
<glyph glyph-name="instagram" unicode="&#57363;" d="M175 452c21 1 28 1 81 1 53 0 60 0 81-1 21-1 35-5 48-9 13-5 24-12 35-23 11-11 18-22 23-35 4-13 8-27 9-48 1-21 1-28 1-81 0-53 0-60-1-81-1-21-5-35-9-48-5-13-12-24-23-35-11-11-22-18-35-23-13-4-27-8-48-9-21-1-28-1-81-1-53 0-60 0-81 1-21 1-35 5-48 9-13 5-24 12-35 23-11 11-18 22-23 35-4 13-8 27-9 48-1 21-1 28-1 81 0 53 0 60 1 81 1 21 5 35 9 48 5 13 12 24 23 35 11 11 22 18 35 23 13 4 27 8 48 9z m161-36c-21 1-27 1-80 1-53 0-59 0-80-1-19-1-29-4-36-6-9-4-16-8-23-15-7-7-11-14-15-23-2-7-5-17-6-36-1-21-1-27-1-80 0-53 0-59 1-80 1-19 4-29 6-36 4-9 8-16 15-23 7-7 14-11 23-15 7-2 17-5 36-6 21-1 27-1 80-1 53 0 59 0 80 1 19 1 29 4 36 6 9 4 16 8 23 15 7 7 11 14 15 23 2 7 5 17 6 36 1 21 1 27 1 80 0 53 0 59-1 80-1 19-4 29-6 36-4 9-8 16-15 23-7 7-14 11-23 15-7 2-17 5-36 6z m-181-160c0 56 45 101 101 101 56 0 101-45 101-101 0-56-45-101-101-101-56 0-101 45-101 101z m35 0c0-36 30-66 66-66 36 0 66 30 66 66 0 36-30 66-66 66-36 0-66-30-66-66z m171 81c-13 0-24 11-24 24 0 13 11 24 24 24 13 0 24-11 24-24 0-13-11-24-24-24z"/>
<glyph glyph-name="instagram-filled" unicode="&#57364;" d="M20 256c0 131 105 236 236 236 131 0 236-105 236-236 0-131-105-236-236-236-131 0-236 105-236 236z m383-61c1 16 1 21 1 61 0 40 0 45-1 61-1 16-3 26-7 36-4 9-9 18-17 26-8 8-17 13-26 17-10 4-20 6-36 7-16 1-21 1-61 1-40 0-45 0-61-1-16-1-26-3-36-7-9-4-18-9-26-17-8-8-13-17-17-26-4-10-6-20-7-36-1-16-1-21-1-61 0-40 0-45 1-61 1-16 3-26 7-36 4-9 9-18 17-26 8-8 17-13 26-17 10-4 20-6 36-7 16-1 21-1 61-1 40 0 45 0 61 1 16 1 26 3 36 7 9 4 18 9 26 17 8 8 13 17 17 26 4 10 6 20 7 36z m-32 148c2-5 5-13 5-27 1-16 1-21 1-60 0-39 0-44-1-60 0-14-3-22-5-27-3-7-6-12-11-17-5-5-10-8-17-11-5-2-13-5-27-5-16-1-21-1-60-1-39 0-44 0-60 1-14 0-22 3-27 5-7 3-12 6-17 11-5 5-8 10-11 17-2 5-5 13-5 27-1 16-1 21-1 60 0 39 0 44 1 60 0 14 3 22 5 27 3 7 6 12 11 17 5 5 10 8 17 11 5 2 13 5 27 5 16 1 21 1 60 1 39 0 44 0 60-1 14 0 22-3 27-5 7-3 12-6 17-11 5-5 8-10 11-17z m-36-26c10 0 18 8 18 18 0 10-8 18-18 18-10 0-18-8-18-18 0-10 8-18 18-18z m-79-137c42 0 76 34 76 76 0 42-34 76-76 76-42 0-76-34-76-76 0-42 34-76 76-76z"/>
<glyph glyph-name="insurance" unicode="&#57365;" d="M402 70c-40-31-91-50-146-50-55 0-106 19-146 50l70 71c22-15 48-23 76-23 28 0 54 8 76 23z m40 40l-71 70c15 22 23 48 23 76 0 28-8 54-23 76l71 70c31-40 50-91 50-146 0-55-19-106-50-146z m-372 292l71-70c-15-22-23-48-23-76 0-28 8-54 23-76l-71-70c-31 40-50 91-50 146 0 55 19 106 50 146z m40 40c40 31 91 50 146 50 55 0 106-19 146-50l-70-71c-22 15-48 23-76 23-28 0-54-8-76-23z"/>
<glyph glyph-name="investment" unicode="&#57366;" d="M158 315l-20 20-99-99 0 217c0 11 9 20 20 20l394 0c11 0 20-9 20-20l0-394c0-11-9-20-20-20l-394 0c-11 0-20 9-20 20l0 99 99 98 98-98 138 137-39 40-99-99z m137 59l119-118 0 118z"/>
<glyph glyph-name="investment-fixed" unicode="&#57367;" d="M449 473l-386 0c-13 0-24-11-24-24l0-163 278 0 0 58 88-88-88-88 0 58-278 0 0-163c0-13 11-24 24-24l386 0c13 0 24 11 24 24l0 386c0 13-11 24-24 24"/>
<glyph glyph-name="investment-variable" unicode="&#57368;" d="M449 473l-386 0c-13 0-24-11-24-24l0-168 97 96 111-111 97 0 0 59 89-88-89-89 0 59-122 0-86 86-97-96 0-134c0-13 11-24 24-24l386 0c13 0 24 11 24 24l0 386c0 13-11 24-24 24"/>
<glyph glyph-name="jpg-doc" unicode="&#57369;" d="M390 199l-20 0 0 12 0 0c-4-8-15-14-29-14-32 0-46 24-46 56 0 34 18 56 48 56 17 0 34-7 44-26l-21-9c-4 9-11 15-22 15-9 0-26-5-26-36 0-30 15-38 26-38 12 0 20 8 22 20l-17 0-3 17 44 0z m-150 37l-16 0 0-37-23 0 0 108 40 0c23 0 44-7 44-35 0-29-23-36-45-36z m1 52l-17 0 0-32 17 0c15 0 21 6 21 16-1 10-6 16-21 16z m-60-58c0-20-10-33-36-33-14 0-23 4-30 10l10 17c6-4 12-9 19-9 9 0 14 6 14 19l0 73 23 0z m134 262l-224 0c-7 0-12-5-12-12l0-448c0-6 5-12 12-12l330 0c7 0 12 6 12 12l0 343z"/>
<glyph glyph-name="keyboard" unicode="&#57370;" d="M453 276l0-44-88 0 0 44 44 0 0 87 44 0z m-44-131l44 0 0 43-44 0z m-44 0l-218 0 0 43 218 0z m-306 0l44 0 0 43-44 0z m0 87l88 0 0 44-88 0z m0 88l44 0 0 43-44 0z m131-88l44 0 0 44-44 0z m-43 88l43 0 0 43-43 0z m131-88l44 0 0 44-44 0z m-44 88l44 0 0 43-44 0z m88 0l43 0 0 43-43 0z m159 113l-450 0c-6 0-11-4-11-10l0-334c0-6 5-10 11-10l450 0c6 0 11 4 11 10l0 334c0 5-5 10-11 10z"/>
<glyph glyph-name="last-page" unicode="&#57371;" d="M138 172l83 84-83 84 28 27 83-83 28-28-111-111z m218 202l0-236-40 0 0 236z"/>
<glyph glyph-name="lightbulb" unicode="&#57372;" d="M315 226l-20 0 33 89-144 0 33-89-20 0-39 109 196 0z m-59 266c87 0 158-70 158-157 0-14-2-27-5-40l-55-98-196 0-55 98c-3 13-5 26-5 40 0 87 71 157 158 157z m-98-334l0 19 196 0 0-19z m0-40l0 20 196 0 0-20z m0-39l0 19 196 0 0-19z m119-59l-80 0 0 39 119 0z"/>
<glyph glyph-name="limits" unicode="&#57373;" d="M260 216c-1 1-3 1-4 1-22 0-39-18-39-40 0-22 17-39 39-39 22 0 39 17 39 39 0 1 0 3 0 4l79 95-20 19z m-196-137c-28 39-44 86-44 138 0 130 105 236 236 236 131 0 236-106 236-236 0-52-16-99-44-138z m350 39c10 0 19 9 19 20 0 11-9 20-19 20-11 0-20-9-20-20 0-11 9-20 20-20z m19 99c11 0 20 8 20 19 0 11-9 20-20 20-11 0-19-9-19-20 0-11 8-19 19-19z m-28 129c-36 41-90 68-149 68-109 0-197-89-197-197 0-36 10-70 26-99l48 0c-22 27-35 61-35 99 0 87 71 157 158 157 49 0 92-22 121-56z"/>
<glyph glyph-name="link" unicode="&#57374;" d="M124 124c-60 19-104 75-104 142 0 81 66 148 147 148l168 0-59-60-109 0c-49 0-88-39-88-88 0-49 39-89 88-89l10 0z m73-6l59 59 89 0c49 0 88 40 88 89 0 46-34 83-79 88l48 48c53-22 90-75 90-136 0-82-66-148-147-148z m0 177l177 0-59-59-177 0z"/>
<glyph glyph-name="linkedin" unicode="&#57375;" d="M117 357c-27 0-48 19-48 43 0 24 21 43 48 43 26 0 47-19 47-43 0-24-21-43-47-43z m166-34l0-35c22 28 44 41 79 41 35 0 96-17 96-114l0-139-85 0 0 134c0 27-11 54-43 54-32 0-47-27-47-55l0-133-83 0 0 247z m-124-247l-85 0 0 247 85 0z"/>
<glyph glyph-name="linkedin-filled" unicode="&#57376;" d="M392 159l-55 0 0 89c0 18-8 36-29 36-21 0-32-18-32-37l0-88-53 0 0 164 53 0 0-24c16 19 29 28 53 28 23 0 63-12 63-76z m-224 186c-18 0-32 12-32 28 0 16 14 28 32 28 17 0 31-12 31-28 0-16-14-28-31-28z m-28-186l55 0 0 164-55 0z m115 333c-130 0-235-105-235-235 0-130 105-236 235-236 130 0 236 106 236 236 0 130-106 235-236 235z"/>
<glyph glyph-name="list-view" unicode="&#57377;" d="M39 354l0 60 59 0 0-60z m0-128l0 60 60 0 0-60z m0-128l0 60 59 0 0-60z m119 316l334 0-59-60-275 0z m216-188l-216 0 0 60 275 0z m-216-68l334 0-59-60-275 0z"/>
<glyph glyph-name="loan" unicode="&#57378;" d="M217 276l0 78 39 40 0-138-59-59-59 0z m256-6c-13 8-26 14-40 18-7 103-92 185-197 185-108 0-197-89-197-197 0-105 82-190 185-197 4-14 10-27 18-40-2 0-4 0-6 0-130 0-236 106-236 237 0 130 106 236 236 236 131 0 237-106 237-236 0-2 0-4 0-6z m-89-270c-71 0-128 57-128 128 0 71 57 128 128 128 71 0 128-57 128-128 0-71-57-128-128-128z m14 43l0 24c16 4 25 17 25 33 0 18-7 27-32 38-16 7-20 11-20 18 0 8 6 13 16 13 8 0 16-3 23-8l2-2 2-1 0 2 0 3 3 15 0 1 0 1 0 1-1 0c-6 3-10 5-18 6l0 12-20 10-2 0 0-22c-16-4-26-15-26-32 0-17 7-25 31-36 17-8 21-11 21-20 0-9-7-14-18-14-9 0-19 3-28 9l-3 1-1 1 0-1-1-3-2-16 0-1-1-1 1-1 1 0c8-4 16-7 26-8l0-11 20-11z"/>
<glyph glyph-name="lock" unicode="&#57379;" d="M394 295l20 0c10 0 19-8 19-19l0-236c0-11-9-20-19-20l-316 0c-10 0-19 9-19 20l0 236c0 11 9 19 19 19l20 0 0 60c0 76 62 137 138 137 76 0 138-61 138-137z m-40 0l0 60c0 54-44 98-98 98-54 0-98-44-98-98l0-60z m-177-118l0-39 118 0 40 39z"/>
<glyph glyph-name="look-up" unicode="&#57380;" d="M482 0l-89 87c-23-17-51-28-82-28-72 0-131 57-131 128 0 71 59 128 131 128 72 0 131-57 131-128 0-25-8-49-21-69l91-88z m-68 321c-12 9-26 16-40 22l0 110-295 0 0-374 102 0c13-16 30-30 49-40l-171 0c-11 0-20 9-20 20l0 414c0 10 9 19 20 19l335 0c11 0 20-8 20-19z m-44-135l30 0c0 48-40 86-88 86l0-29c32 0 58-25 58-57z"/>
<glyph glyph-name="map" unicode="&#57381;" d="M335 433l122 35c8 2 16-3 16-11l0-351c0-4-3-9-8-11l-130-56-158 59-121-51c-8-4-17 2-17 11l0 366c0 6 4 10 9 12l129 37z m0-354l0 315-158 39 0-295z"/>
<glyph glyph-name="medical-kit" unicode="&#57382;" d="M354 183l-65 0 0-65-66 0 0 65-65 0 0 67 65 0 0 65 66 0 0-65 65 0z m-177 211l158 0 0 39-158 0z m296 0l-99 0 0 59c0 11-9 20-20 20l-196 0c-11 0-20-9-20-20l0-59-99 0c-10 0-19-9-19-20l0-315c0-11 9-20 19-20l434 0c10 0 19 9 19 20l0 315c0 11-9 20-19 20z"/>
<glyph glyph-name="menu" unicode="&#57383;" d="M415 249l33 0 0-63 63 0 0-33-63 0 0-63-33 0 0 63-64 0 14 33 50 0z m-396-102l0 49 262 0-19-49z m0 108l0 49 311 0-19-49z m360 152l-17-44-342 0 0 49 361 0z"/>
<glyph glyph-name="microphone" unicode="&#57384;" d="M158 276l0 39 78 0 40 39-118 0 0 40c0 54 44 98 98 98 54 0 98-44 98-98l0-138c0-54-44-98-98-98-48 0-87 33-96 78l76 0 40 40z m-78-40l40 0c9-66 67-118 136-118 69 0 127 51 136 118l40 0c-9-82-74-147-156-156l0-41 98 0 0-39-236 0 0 39 98 0 0 41c-82 9-147 74-156 156z"/>
<glyph glyph-name="minus" unicode="&#57385;" d="M138 276l0-40 216 0 40 40z"/>
<glyph glyph-name="minus-filled" unicode="&#57386;" d="M20 256c0 131 105 236 236 236 131 0 236-105 236-236 0-131-105-236-236-236-131 0-236 105-236 236z m118 20l0-40 216 0 40 40z"/>
<glyph glyph-name="mobile" unicode="&#57387;" d="M98 473c0 10 9 19 20 19l276 0c11 0 20-9 20-19l0-434c0-10-9-19-20-19l-276 0c-11 0-20 9-20 19z m40-20l0-355 236 0 0 355z m39-39l158 0 0-79-158-158z m79-375c11 0 20 9 20 20 0 11-9 20-20 20-11 0-20-9-20-20 0-11 9-20 20-20z"/>
<glyph glyph-name="mobile-cash-dollar" unicode="&#57388;" d="M236 178c-16 2-31 7-44 13l6 33c16-9 37-17 56-17 18 0 30 8 30 24 0 14-7 20-36 32-38 15-53 27-53 57 0 27 16 45 41 51l0 43 40-20 0-21c13-2 24-5 34-11l-5-33c-15 9-31 15-47 15-19 0-27-9-27-21 0-12 6-18 34-29 40-16 55-30 55-60 0-30-18-48-44-54l0-42-40 20z m-138 295c0 10 9 19 20 19l276 0c11 0 20-9 20-19l0-434c0-10-9-19-20-19l-276 0c-11 0-20 9-20 19z m40-20l0-355 236 0 0 355z m98-394c0-11 9-20 20-20 11 0 20 9 20 20 0 11-9 20-20 20-11 0-20-9-20-20z"/>
<glyph glyph-name="mobile-cash-euro" unicode="&#57389;" d="M283 311l-27-26-52 0c0-3 0-5 0-7 0-2 0-4 0-7l79 0-27-26-44 0c12-20 33-33 58-33 18 0 34 7 46 19l19-18c-17-17-40-27-65-27-51 0-93 41-93 92 0 2 0 4 0 7l0 0 1 0c3 48 43 85 92 85 25 0 48-10 65-27l-19-18c-12 11-28 19-46 19-25 0-46-13-58-33z m-145-213l236 0 0 355-236 0z m118-59c-11 0-20 9-20 20 0 11 9 20 20 20 11 0 20-9 20-20 0-11-9-20-20-20z m138 453l-276 0c-11 0-20-9-20-19l0-434c0-10 9-19 20-19l276 0c11 0 20 9 20 19l0 434c0 10-9 19-20 19z"/>
<glyph glyph-name="mobile-charge" unicode="&#57390;" d="M98 473c0 10 9 19 20 19l276 0c11 0 20-9 20-19l0-434c0-10-9-19-20-19l-276 0c-11 0-20 9-20 19z m40-20l0-355 236 0 0 355z m39-276l158 158 0-197-158 0z m0 79l158 158 0-40-158-157z m59-197c0-11 9-20 20-20 11 0 20 9 20 20 0 11-9 20-20 20-11 0-20-9-20-20z"/>
<glyph glyph-name="mobile-off" unicode="&#57391;" d="M374 98l0 217 40 39 0-314c0-11-9-20-20-20l-276 0c-11 0-19 8-20 19l60 59z m40 375l39 39 0-59-394-394 0 59 39 40 0 315c0 11 9 19 20 19l276 0c11 0 20-8 20-19z m-158-433c11 0 20 9 20 19 0 11-9 20-20 20-11 0-20-9-20-20 0-11 9-19 20-19z m-118 157l236 236 0 20-236 0z"/>
<glyph glyph-name="mobile-payment" unicode="&#57392;" d="M138 98l236 0 0 355-236 0z m118-59c-11 0-20 9-20 20 0 10 9 19 20 19 11 0 20-8 20-19 0-11-9-20-20-20z m138 453c11 0 20-9 20-20l0-433c0-11-9-19-20-19l-276 0c-11 0-20 8-20 19l0 433c0 11 9 20 20 20z m-82-216c0-43-19-81-48-106l25-19c33 30 54 75 54 125 0 49-21 94-54 124l-25-19c29-24 48-63 48-105z m-103-64l27-20c21 20 35 50 35 84 0 33-14 63-35 84l-27-20c19-16 30-39 30-64 0-26-11-49-30-64z m-53 40l22-17c12 10 20 24 20 41 0 16-8 31-20 40l-22-17c7-6 11-14 11-23 0-10-4-18-11-24z"/>
<glyph glyph-name="more" unicode="&#57393;" d="M79 197c-33 0-59 26-59 59 0 33 26 59 59 59 32 0 59-26 59-59 0-33-27-59-59-59z m177 0c-33 0-59 26-59 59 0 33 26 59 59 59 33 0 59-26 59-59 0-33-26-59-59-59z m177 0c-32 0-59 26-59 59 0 33 27 59 59 59 33 0 59-26 59-59 0-33-26-59-59-59z"/>
<glyph glyph-name="morgage" unicode="&#57394;" d="M59 217l197 157 197-157 0-158c0-11-9-20-20-20l-354 0c-11 0-20 9-20 20z m197-178l118 0 0 158-118 0z m-138 99l59 0 40 39-99 0z m138 354l256-216-39-40-217 178-217-178-39 40z"/>
<glyph glyph-name="mug" unicode="&#57395;" d="M394 177l59 0 0 177-59 0z m-256 59l2 0-42 40 0 138 40 0z m364 173l-108 0 0 49c0 8-11 15-19 15l-322 0c-8 0-14-7-14-15l0-424c0-7 6-14 14-14l322 0c8 0 19 7 19 14l0 87 108 0c7 0 10 5 10 12l0 263c0 7-3 13-10 13z"/>
<glyph glyph-name="nfc" unicode="&#57396;" d="M282 55c56 47 92 120 92 201 0 81-36 154-92 201l48 36c63-57 103-142 103-237 0-95-40-180-103-237z m-53 361c40-39 66-97 66-160 0-63-26-121-66-160l-50 38c35 29 57 73 57 122 0 49-22 93-57 122z m-109-83c23-18 38-46 38-77 0-31-15-59-38-77l-42 32c13 11 20 27 20 45 0 18-7 34-20 45z"/>
<glyph glyph-name="nfc-disconencted" unicode="&#57397;" d="M343 382c-16 29-36 54-61 75l48 36c22-19 40-42 56-68l67 67 0-59-374-374 0 59 156 157c-5 41-26 78-56 103l50 38c25-24 45-56 56-92z m29-89l50 50c7-28 11-57 11-87 0-95-40-180-103-237l-48 36c56 47 92 120 92 201 0 13-1 25-2 37z m-81-81c-9-45-31-86-62-116l-31 23z m-171 121c23-18 38-46 38-77 0-31-15-59-38-77l-42 32c13 11 20 27 20 45 0 18-7 34-20 45z"/>
<glyph glyph-name="no-pin-pad" unicode="&#57398;" d="M450 391c27-38 42-85 42-135 0-131-105-236-236-236-50 0-97 15-135 42l105 105 0-41 60 0 0 59-42 0 83 83 0-42 59 0 0 60-41 0z m-265-206l-165-165 0 59 42 42c-27 38-42 85-42 135 0 130 106 236 236 236 50 0 97-15 135-42l62 62 0-59z m142-59l59 0 0 59-59 0z m-201 160l0-60 41 0 18 18 0 42z m0 41l59 0 0 59-59 0z m100 59l0-59 42 0 18 18 0 41z"/>
<glyph glyph-name="non-client" unicode="&#57399;" d="M335 117l-59 0 0 39 98 0z m12 150c73-22 126-90 126-170l0-39-335 0z m-308-249l0 1 0 58 41 41c9 74 63 134 134 151l18 0 26 26c-46 9-81 49-81 97 0 55 44 99 99 99 48 0 88-35 97-81l79 80 0-60z"/>
<glyph glyph-name="office-building" unicode="&#57400;" d="M335 276l59 0 0 59-59 0z m0-99l59 0 0 59-59 0z m-99 99l59 0 0 59-59 0z m0-99l59 0 0 59-59 0z m-98 99l59 0 0 59-59 0z m0-99l59 0 0 59-59 0z m-40 276l0-420c0-7 8-13 16-13l103 0 0 98 98 0 0-98 107 0c7 0 11 6 11 19l0 434z"/>
<glyph glyph-name="on-off" unicode="&#57401;" d="M89 423l42-42c-32-32-52-76-52-125 0-98 79-177 177-177 98 0 177 79 177 177 0 49-20 93-52 125l42 42c43-43 69-102 69-167 0-131-105-236-236-236-131 0-236 105-236 236 0 65 26 124 69 167z m137 69l60 0 0-157-60-59z"/>
<glyph glyph-name="one-click" unicode="&#57402;" d="M256 20c-131 0-236 105-236 236 0 131 105 236 236 236 131 0 236-105 236-236 0-131-105-236-236-236z m0 39c109 0 197 88 197 197 0 109-88 197-197 197-109 0-197-88-197-197 0-109 88-197 197-197z m0 59c-76 0-138 62-138 138 0 76 62 138 138 138 76 0 138-62 138-138 0-76-62-138-138-138z m0 40c54 0 98 44 98 98 0 54-44 98-98 98-54 0-98-44-98-98 0-54 44-98 98-98z"/>
<glyph glyph-name="pacifier" unicode="&#57403;" d="M315 408c26 25 68 25 93 0 26-26 26-68 0-93-25-26-67-26-93 0-25 25-25 67 0 93m124-124c-31-32-78-40-117-25l-22-22 79-79c8-7 8-20 0-28l-3-3c-8-7-20-7-28 0l-220 220c-8 8-8 21 0 28l3 3c8 8 20 8 28 0l79-79 22 22c-16 40-7 86 24 118 43 43 113 43 155 0 43-43 43-112 0-155z m-239-40l45-45c4-4 6-12 1-16-38-39-12-74-55-116-34-34-89-34-124 0-34 34-34 90 0 124 43 42 77 16 116 55 5 4 12 3 17-2z"/>
<glyph glyph-name="partly-sunny" unicode="&#57404;" d="M316 39c55 0 99 45 99 100 0 56-44 100-99 100-8 0-17-1-25-3-21 52-71 89-130 89-78 0-141-64-141-143 0-79 63-143 141-143z m105 259c0 57-47 103-104 103-42 0-78-24-95-59-1-1-1-3-2-4 37-13 69-40 83-73 7 2 15 2 23 1 29-2 53-14 71-34 15 18 24 41 24 66z m24 122l0 29-1 0-49-48 15-15z m47-135l20 20 0 1-69 0 0-21z m-283 152l-29 0-1 0 49-49 15 15z m118 35l-20 20-1 0 0-68 21 0z"/>
<glyph glyph-name="pause-simple" unicode="&#57405;" d="M20 256c0 130 106 236 236 236 131 0 236-106 236-236 0-130-106-236-236-236-130 0-236 106-236 236z m39 0c0-109 88-197 197-197 109 0 197 88 197 197 0 109-88 197-197 197-109 0-197-88-197-197z m217-98l0 196 59 0 0-196z m-99 0l0 196 59 0 0-196z"/>
<glyph glyph-name="paw" unicode="&#57406;" d="M256 60c90 0 164-62 164 29 0 90-74 206-164 206-91 0-164-116-164-206 0-91 73-29 164-29m69 278c27 0 49 30 49 67 0 37-22 68-49 68-27 0-49-31-49-68 0-37 22-67 49-67m99-109c27 0 49 30 49 67 0 38-22 68-49 68-27 0-49-30-49-68 0-37 22-67 49-67m-239 109c27 0 49 30 49 67 0 37-22 68-49 68-27 0-49-31-49-68 0-37 22-67 49-67m-97-109c27 0 49 30 49 67 0 38-22 68-49 68-27 0-49-30-49-68 0-37 22-67 49-67"/>
<glyph glyph-name="pdf-doc" unicode="&#57407;" d="M79 473c0 10 9 19 20 19l216 0 118-118 0-335c0-11-9-19-19-19l-316 0c-10 0-19 9-19 19z m78-243c21 0 46 5 46 36 0 31-23 35-46 35l-39 0 0-104 28 0 0 33z m93-33c31 0 57 12 57 53 0 40-26 51-57 51l-35 0 0-104z m-92 83c14 0 17-6 17-14 0-8-3-14-17-14l-12 0 0 28z m93-2c22 0 28-9 28-28 0-21-6-29-28-29l-7 0 0 57z m143 0l0 23-73 0 0-104 30 0 0 37 29 0 0 24-29 0 0 20z"/>
<glyph glyph-name="phishing" unicode="&#57408;" d="M235 59c96 0 175 68 193 158l-386 0c19-90 98-158 193-158z m-58 244l-79 0 20-39 59 0z m197 0l-79 0 20-39 59 0z m-139 150c-73 0-136-40-170-99l341 0c-34 59-98 99-171 99z m277-99l0-137-43 0c-18-112-116-197-233-197-130 0-236 105-236 236 0 131 106 236 236 236 96 0 178-56 215-138z m-354-236l137 0 0 40-137 0z"/>
<glyph glyph-name="photo" unicode="&#57409;" d="M394 414l85 0c7 0 13-6 13-13l0-368c0-8-6-13-13-13l-446 0c-7 0-13 5-13 13l0 368c0 7 6 13 13 13l85 0 128 95c3 2 7 3 11 3 4 0 8-1 11-3z m59-355l0 312-393-1 0-311z m-251 137l-77-98-26 0 0 237 315 0 0-237-20 0-94 127-60-70z m55 275l-80-57 158 0z m-102-165c-16 0-27-12-27-26 0-14 13-26 27-26 14 0 26 12 26 26 0 14-12 26-26 26z"/>
<glyph glyph-name="piggy-bank" unicode="&#57410;" d="M473 256c10 0 19-9 19-20 0-11-9-19-19-19l-18 0c-4-59-41-122-101-153l0-32c0-7-3-12-9-12l-36 0c-6 0-14 5-14 12l0 11c-19-2-26-4-39-4-13 0-20 2-39 4l0-11c0-7-4-12-10-12l-36 0c-6 0-13 5-13 12l0 32c-40 25-77 74-90 113l-25 0c-13 0-23 11-23 24l0 71c0 13 10 23 23 23l32 0c0 0 0 0 0 0 11 24 26 46 45 63l2 75 51-40c2 1 5 3 8 4 12-47 54-82 105-82 41 0 76 23 95 56 37-28 63-76 71-115z m-187 98c-38 0-69 31-69 69 0 38 31 69 69 69 38 0 69-31 69-69 0-38-31-69-69-69z m-146-68c0-17 13-30 29-30 17 0 30 13 30 30 0 16-13 29-30 29-16 0-29-13-29-29z"/>
<glyph glyph-name="pin" unicode="&#57411;" d="M453 295c-1-176-181-289-181-289-9-6-23-6-32 0 0 0-180 113-181 289 0 1 0 1 0 1 0 108 88 196 197 196 109 0 197-88 197-196 0 0 0 0 0-1z m-197-98c54 0 98 44 98 98 0 55-44 99-98 99-54 0-98-44-98-99 0-54 44-98 98-98z"/>
<glyph glyph-name="pin-checkmark" unicode="&#57412;" d="M453 295c-1-176-181-289-181-289-9-6-23-6-32 0 0 0-180 113-181 289 0 1 0 1 0 1 0 108 88 196 197 196 109 0 197-88 197-196 0 0 0 0 0-1z m-79 40l-29 30-128-128-59 59-30-29 89-89z"/>
<glyph glyph-name="pin-pad" unicode="&#57413;" d="M327 327l59 0 0 59-59 0z m0-101l59 0 0 60-59 0z m0-100l59 0 0 59-59 0z m-101 201l60 0 0 59-60 0z m0-101l60 0 0 60-60 0z m0-100l60 0 0 59-60 0z m-100 201l59 0 0 59-59 0z m0-101l59 0 0 60-59 0z m0-100l59 0 0 59-59 0z m130 366c-130 0-236-106-236-236 0-131 106-236 236-236 131 0 236 105 236 236 0 130-105 236-236 236z"/>
<glyph glyph-name="pin-searching" unicode="&#57414;" d="M59 295c0 1 0 1 0 1 0 108 88 196 197 196 109 0 197-88 197-196 0 0 0 0 0-1 0-176-181-290-181-290-9-6-23-6-32 1 0 0-181 113-181 289z m138 10c0 17-13 30-30 30-16 0-29-13-29-30 0-16 13-29 29-29 17 0 30 13 30 29z m89 0c0 17-14 30-30 30-16 0-30-13-30-30 0-16 14-29 30-29 16 0 30 13 30 29z m88 0c0 17-13 30-29 30-17 0-30-13-30-30 0-16 13-29 30-29 16 0 29 13 29 29z"/>
<glyph glyph-name="pin-x" unicode="&#57415;" d="M59 295c0 1 0 1 0 1 0 108 88 196 197 196 109 0 197-88 197-196 0 0 0 0 0-1 0-176-181-290-181-290-9-6-23-6-32 1 0 0-181 113-181 289z m294-68l-69 70 69 69-27 28-70-69-70 69-27-28 69-69-69-70 27-28 70 70 70-70z"/>
<glyph glyph-name="pinterest" unicode="&#57416;" d="M205 173c-12-62-27-122-70-153-13 94 20 165 35 240-26 44 3 131 58 110 68-27-59-163 26-180 89-17 125 153 70 209-79 80-231 2-212-113 4-28 33-37 11-75-51 11-66 51-64 104 3 87 79 148 155 156 95 11 185-35 197-124 14-101-43-211-145-203-28 2-39 16-61 29"/>
<glyph glyph-name="pinterest-filled" unicode="&#57417;" d="M256 492c131 0 236-105 236-236 0-131-105-236-236-236-131 0-236 105-236 236 0 131 105 236 236 236z m19-303c67-5 104 67 95 133-8 58-67 88-129 81-49-6-98-46-100-102-1-35 9-61 42-68 14 25-5 31-8 49-12 75 86 126 138 74 36-37 12-148-45-136-55 11 27 99-17 117-36 14-55-44-38-72-10-49-31-95-23-157 28 21 38 60 46 100 14-8 21-17 39-19z"/>
<glyph glyph-name="play-filled" unicode="&#57418;" d="M20 256c0 130 106 236 236 236 130 0 236-106 236-236 0-130-106-236-236-236-130 0-236 106-236 236z m177-98l157 98-157 98z"/>
<glyph glyph-name="play-simple" unicode="&#57419;" d="M20 256c0 130 106 236 236 236 131 0 236-106 236-236 0-130-106-236-236-236-130 0-236 106-236 236z m236-197c109 0 197 88 197 197 0 109-88 197-197 197-109 0-197-88-197-197 0-109 88-197 197-197z m-39 99l0 196 137-98z"/>
<glyph glyph-name="play-store" unicode="&#57420;" d="M287 232l46-46-193-105z m-206 211l197-201-179-183c-10-2-20 6-20 17l0 360c0 3 0 5 2 7z m206-191l-195 200c3 1 8 1 11-1l242-140z m137 12c12-6 11-23 0-29l-78-42-49 49 60 61z"/>
<glyph glyph-name="plus" unicode="&#57421;" d="M236 374l0-98-98 0 0-40 98 0 0-98 40 0 0 98 78 0 40 40-118 0 0 98z"/>
<glyph glyph-name="plus-filled" unicode="&#57422;" d="M256 492c131 0 236-105 236-236 0-131-105-236-236-236-131 0-236 105-236 236 0 131 105 236 236 236z m-20-118l0-98-98 0 0-40 98 0 0-98 40 0 0 98 78 0 40 40-118 0 0 98z"/>
<glyph glyph-name="points" unicode="&#57423;" d="M258 279c-35 0-63 28-63 63 0 34 28 62 63 62 34 0 63-28 63-62 0-35-29-63-63-63m-2-201l-59-58 0 171c-58 24-99 80-99 145 0 86 71 156 158 156 87 0 158-70 158-156 0-65-41-121-98-144l0-172-60 58"/>
<glyph glyph-name="popcorn" unicode="&#57424;" d="M98 315l52 0 18-276-35 0z m87 0l52 0 0-276-34 0z m87 0l52 0-17-276-35 0z m87 0l53 0-35-276-35 0z m33 75c12-7 20-20 20-36l-314 0c0 16 8 30 20 36-2 4-3 9-3 14 0 16 12 29 27 29 6 10 16 17 27 19 3 9 9 17 17 19 3 12 13 21 25 21 12 0 22-9 25-21 3 1 7 2 10 2 3 0 6-1 9-2 4 23 22 41 43 41 22 0 40-18 43-41 8-3 14-10 17-19 21-4 36-24 36-48 0-5 0-10-2-14z"/>
<glyph glyph-name="portfolio" unicode="&#57425;" d="M138 394l0 59c0 11 9 20 20 20l196 0c11 0 20-9 20-20l0-59 99 0c10 0 19-9 19-20l0-315c0-11-9-20-19-20l-434 0c-10 0-19 9-19 20l0 315c0 11 9 20 19 20z m39 39l0-39 158 0 0 39z m-79-118l0-39 119 0 39 39z"/>
<glyph glyph-name="present" unicode="&#57426;" d="M364 374l89 0 0-99-177 0 0 99z m-305-99l0 99 176 0 0-99z m276 217l79-59-97-59-124 0-95 59 79 59 78-98z m-256-453l0 197 157 0 0-197z m197 0l0 197 157 0 0-197z"/>
<glyph glyph-name="press" unicode="&#57427;" d="M315 353l118 0 0 40-118 0z m0-78l118 0 0 39-118 0z m-158-79l276 0 0 39-276 0z m0-79l276 0 0 40-276 0z m0 158l119 0 0 118-119 0z m-39-178c0-10-9-19-20-19-11 0-19 9-19 19l0 217 39 0z m0 375l0-119-79 0 0-291c0-13 11-24 24-24l386 0c13 0 23 11 23 24l0 410z"/>
<glyph glyph-name="previous-appointment" unicode="&#57428;" d="M99 195l39 0 0 40-39 0z m0-78l39 0 0 39-39 0z m-20 275l317 0-39-39-278 0z m177-118l40 0 0 40-40 0z m-78 0l39 0 0 40-39 0z m0-79l39 0 0 40-39 0z m0-78l0 39 38 0c11 64 58 117 119 136l0 22 40 0 0-15c3 0 7 1 11 1 24 0 47-5 67-14l0 148c0 11-7 17-17 17l-42 0 0 40-39 0 0-40-236 0 0 40-40 0 0-40-37 0c-11 0-22-6-22-17l0-354c0-11 11-22 22-22l186 0c-8 18-13 38-14 59z m195 98l22-22 0-53 53 0-21-21-54 0z m79 23c-20 12-43 19-68 19-36 0-69-15-92-39-6-6-11-12-15-19-8-12-14-25-18-40-2-9-3-19-3-30 0-3 0-7 0-10 2-22 10-43 21-60 23-35 62-58 107-58 71 0 128 58 128 128 0 46-24 86-60 109z"/>
<glyph glyph-name="price-tag" unicode="&#57429;" d="M59 276l138-138 59 0-167 167 160 161c4 3 12 7 17 7l187 0c11 0 20-9 20-20l0-187c0-6-3-13-7-17l-216-215c-7-8-20-8-28 0l-188 188c-8 8-8 21 0 28z m295 39c22 0 40 18 40 39 0 22-18 40-40 40-21 0-39-18-39-40 0-21 18-39 39-39z"/>
<glyph glyph-name="print" unicode="&#57430;" d="M433 374l59 0 0-216c0-11-9-20-19-20l-40 0 0-99c0-10-9-19-19-19l-316 0c-10 0-19 9-19 19l0 99-40 0c-10 0-19 9-19 20l0 216 59 0 0 99c0 10 9 19 19 19l316 0c10 0 19-9 19-19z m-39 0l0 79-276 0 0-79z m-40-59l0-39 60 0 39 39z m-236-138l0-118 276 0 0 118z m40-39l157 0-39-40-118 0z"/>
<glyph glyph-name="profile" unicode="&#57431;" d="M59 39l0 40c0 83 58 153 135 172 19-9 40-15 62-15 22 0 43 6 62 15 77-19 135-89 135-172l0-40z m256 59l39 40-98 0 0-40z m-59 178c-54 0-98 44-98 98 0 55 44 99 98 99 54 0 98-44 98-99 0-54-44-98-98-98z"/>
<glyph glyph-name="promotions" unicode="&#57432;" d="M339 139l-81 50-82-50 21 94-72 63 95 8 38 89 37-89 95-8-72-63z m-83 353c-130 0-236-105-236-236 0-131 106-236 236-236 131 0 236 105 236 236 0 131-105 236-236 236z"/>
<glyph glyph-name="quote" unicode="&#57433;" d="M118 453l99 0-99-158 118 0 0-216-216 0 0 216z m256 0l99 0-99-158 118 0 0-216-216 0 0 216z"/>
<glyph glyph-name="radio" unicode="&#57434;" d="M360 275l-149-158-113 0 0 158z m23-157c-16 0-29 13-29 29 0 16 13 30 29 30 17 0 30-14 30-30 0-16-13-29-30-29z m-78 59c17 0 30-14 30-30 0-16-13-29-30-29-16 0-29 13-29 29 0 16 13 30 29 30z m-246-99l394 0 0 236-394 0z m414 276l-39 0-159 157-39 0 157-157-354 0c-10 0-19-9-19-20l0-276c0-10 9-19 19-19l434 0c10 0 19 9 19 19l0 276c0 11-9 20-19 20z"/>
<glyph glyph-name="re-tweet" unicode="&#57435;" d="M433 256l79 0-118-138-118 138 78 0 0 79-117 0-67 78c0 0 107 0 184 0l0 1 2-1c43 0 77 0 77 0z m-158-79l66-77c0-1 0-2-1-2l-261 0 0 158-79 0 118 138 118-138-78 0 0-79 116 0c0 0 1 0 1 0z"/>
<glyph glyph-name="receipt" unicode="&#57436;" d="M79 473c0 10 9 19 19 19l316 0c10 0 19-9 19-19l0-434c0-10-9-19-19-19l-316 0c-10 0-19 9-19 19z m236-434l-20-19 40 0 0 19z m59 0l-20-19 40 0 0 19z m-118 0l-20-19 40 0 0 19z m-59 0l-20-19 40 0 0 19z m-59 0l-20-19 40 0 0 19z m177 434l20 19-40 0 0-19z m59 0l20 19-40 0 0-19z m-118 0l20 19-40 0 0-19z m-59 0l20 19-40 0 0-19z m-59 0l20 19-40 0 0-19z m0-79l0-40 197 0 39 40z m0-79l0-39 138 0 39 39z m0-79l0-39 177 0 39 39z"/>
<glyph glyph-name="receipt-accepted" unicode="&#57437;" d="M237 183l-30-30-83 83 28 28 55-56 153 153 28-27z m177 309l-20 0-20-19-20 0 0 19-19 0-20-19-20 0 0 19-19 0-20-19-20 0 0 19-19 0-20-19-20 0 0 19-19 0-20-19-20 0 0 19-20 0c-10 0-19-8-19-18l0-434c0-11 9-20 19-20l20 0 20 19 20 0 0-19 19 0 20 19 20 0 0-19 19 0 20 19 20 0 0-19 19 0 20 19 20 0 0-19 19 0 20 19 20 0 0-19 20 0c10 0 19 9 19 20l0 434c0 10-9 18-19 18z"/>
<glyph glyph-name="refill-card" unicode="&#57438;" d="M20 414c0 10 9 19 19 19l434 0c10 0 19-9 19-19l0-316c0-10-9-19-19-19l-434 0c-10 0-19 9-19 19z m0-60l0-39 197 0 39 39z m334 0l-59-78 40 0 0-138 39 39 0 99 40 0z"/>
<glyph glyph-name="reply" unicode="&#57439;" d="M217 354l0 99-217-177 217-178 0 99c-6-1 4 0 19 0 109 0 200-44 256-118 0 155-128 274-275 275"/>
<glyph glyph-name="return-money" unicode="&#57440;" d="M65 395c43 59 112 97 191 97 131 0 236-105 236-236 0-131-105-236-236-236-106 0-196 70-226 166l57 18c22-73 89-125 169-125 98 0 177 79 177 177 0 98-79 177-177 177-61 0-114-30-146-77l48-41-138-39 0 157z"/>
<glyph glyph-name="rubberduck" unicode="&#57441;" d="M295 154l-137 0 39 39 98 0z m63 273c11 0 21-9 21-20 0-12-10-21-21-21-11 0-20 9-20 21 0 11 9 20 20 20z m134-28l0 11-40 0c-6 39-48 82-99 82-54 0-99-46-99-100 0-28 12-55 30-73-70-64-170-89-262-61-12-84 28-171 107-215 103-57 233-21 291 82 36 63 35 137 6 197 7 8 14 18 18 28z"/>
<glyph glyph-name="save-for-later" unicode="&#57442;" d="M276 177l69 69 29-29-118-119 0 40 0-40-118 119 29 29 69-69 0 197 40 40z m-237 276c0 11 9 20 20 20l276 0 138-138 0-276c0-11-9-20-20-20l-394 0c-11 0-20 9-20 20z"/>
<glyph glyph-name="scam" unicode="&#57443;" d="M327 189l-70 69-72-72-28 28 72 72-69 70 28 28 69-70 70 70 28-28-70-69 70-70z m146 264c0 11-9 20-20 20l-394 0c-11 0-20-9-20-20l0-138c0-276 217-295 217-295 0 0 217 19 217 295z"/>
<glyph glyph-name="search" unicode="&#57444;" d="M321 152c-30-21-65-34-104-34-98 0-178 80-178 177 0 98 80 178 178 178 97 0 177-80 177-178 0-39-13-74-34-104l113-112-40-40z m14 143c0 66-53 119-118 119l0-40c43 0 78-35 78-79z"/>
<glyph glyph-name="see-ccv" unicode="&#57446;" d="M20 315l157 0 40 39-197 0 0 60c0 10 9 19 19 19l434 0c10 0 19-9 19-19l0-316c0-10-9-19-19-19l-434 0c-10 0-19 9-19 19z m334-138c55 0 99 44 99 99 0 54-44 98-99 98-54 0-98-44-98-98 0-55 44-99 98-99z m-39 118l99 0-40-39-59 0z"/>
<glyph glyph-name="send" unicode="&#57447;" d="M138 158l46 98 190 0z m346 111l-419 183c-5 2-11 1-15-3l-6-6c-5-5-6-11-3-16l73-165c1-4 1-8 0-12l-73-165c-3-5-2-11 3-16l6-6c4-4 10-5 15-3l419 183c11 5 11 21 0 26z"/>
<glyph glyph-name="services" unicode="&#57448;" d="M379 217c-6 19-19 22-28 31-15 14-36 28-56 35l0 31c40-8 56-26 77-45 15-15 32-33 41-52z m93-59l1 0 0-40-434 0 0 40 1 0c5 118 100 205 216 205 117 0 212-87 216-205z m-216 236c-22 0-39 17-39 39 0 22 17 40 39 40 22 0 39-18 39-40 0-22-17-39-39-39z m-256-355l0 40 512 0 0-40z"/>
<glyph glyph-name="settings" unicode="&#57449;" d="M487 205l-56-9c-4-9-8-18-12-27l35-43c-19-28-44-52-72-70l-43 35c-8-4-16-7-24-10l-9-56c-16-3-33-5-50-5-18 0-35 2-52 5l-6 56c-8 3-16 6-23 10l-45-35c-29 19-54 43-72 72l34 44c-4 8-8 17-11 25l-55 7c-4 16-6 34-6 52 0 17 1 33 5 48l55 7c3 10 7 20 12 28l-35 45c18 27 41 51 69 69l45-33c9 4 18 8 28 11l5 56c17 3 34 5 52 5 18 0 35-2 52-5l7-56c8-3 17-7 25-11l44 35c29-19 54-44 72-73l-35-44c4-9 8-17 11-26l55-7c4-16 5-32 5-49 0-18-2-35-5-51z m-231-47c54 0 98 44 98 98 0 54-44 98-98 98-54 0-98-44-98-98 0-54 44-98 98-98z"/>
<glyph glyph-name="share" unicode="&#57450;" d="M169 196l107-71c0-3 0-5 0-7 0-43 35-79 78-79 44 0 79 36 79 79 0 44-35 79-79 79-25 0-47-12-62-31l-99 66c3 8 4 16 4 24 0 8-1 16-4 24l99 66c15-19 37-31 62-31 44 0 79 35 79 79 0 43-35 79-79 79-43 0-78-36-78-79 0-2 0-4 0-7l-107-71c-14 12-31 19-51 19-43 0-79-35-79-79 0-44 36-79 79-79 20 0 37 7 51 19z"/>
<glyph glyph-name="shirt" unicode="&#57451;" d="M236 335l138 0 0-10-37-30-101 0z m-57 138l-67 0c-2 0-4-1-6-2l0 2-67-63 59-54 0-305c-5-6 1-12 7-12l300 0c7 0 7 6 7 12l0 307 61 52-61 57c-1 2-3 3-5 4l-1 2 0-1c-1 0-3 1-4 1l-69 0-77-63z"/>
<glyph glyph-name="shopping-bag" unicode="&#57452;" d="M374 354l79 0 0-315c0-10-9-19-20-19l-354 0c-11 0-20 9-20 19l0 315 79 0 0 20c0 65 53 118 118 118 65 0 118-53 118-118z m-39 0l0 20c0 44-35 79-79 79-43 0-79-35-79-79l0-20z m0-59l0-98 39 39 0 59z m-197 0l0-98 39 39 0 59z"/>
<glyph glyph-name="show" unicode="&#57453;" d="M20 256c0 0 59 177 236 177 177 0 236-177 236-177 0 0-59-177-236-177-177 0-236 177-236 177z m236-118c65 0 118 53 118 118 0 65-53 118-118 118-65 0-118-53-118-118 0-65 53-118 118-118z m0 118l55 56c15-14 24-34 24-56 0-44-35-79-79-79-44 0-79 35-79 79 0 44 35 79 79 79z"/>
<glyph glyph-name="simulator" unicode="&#57454;" d="M215 400c0 0 0 0 0 0 0-3-1-5-2-7l0 0c-8-23-30-39-55-39-26 0-48 16-56 39l0 0c-1 2-2 4-2 7 0 0 0 0 0 0 0 1 0 1-1 2 0 0 0 1 0 1 0 1 0 1 0 1 0 1 0 1 0 2 0 0 0 1 0 1 0 1 0 1 0 2 0 0 0 1 0 1-1 1-1 2-1 3 0 1 0 2 1 3 0 0 0 0 0 1 0 0 0 1 0 2 0 0 0 0 0 1 0 0 0 1 0 1 0 1 0 1 0 2 0 0 0 1 1 1 0 1 0 1 0 2 0 0 0 0 0 1 0 0 0 1 1 1 0 1 0 1 0 2 0 0 0 1 0 1 1 0 1 1 1 1 0 1 0 1 0 2 0 0 1 0 1 1 0 0 0 1 0 1 1 1 1 1 1 1 0 1 0 1 1 2 0 0 0 0 0 1 0 0 1 1 1 1 0 0 0 1 0 1 0 0 1 1 1 2 0 0 0 0 0 0 2 3 4 6 7 8 0 0 0 0 0 0 10 12 26 20 44 20 17 0 33-8 44-20 0 0 0 0 0 0 2-2 4-5 6-8 0 0 0 0 0 0 0-1 1-2 1-2 0 0 0-1 0-1 1 0 1-1 1-1 0-1 0-1 1-1 0-1 0-1 0-2 0 0 1 0 1-1 0 0 0-1 0-1 0-1 1-1 1-1 0-1 0-1 0-2 0 0 1-1 1-1 0 0 0-1 0-1 0-1 0-1 1-2 0 0 0-1 0-1 0-1 0-1 0-1 0-1 0-1 0-2 1 0 1-1 1-1 0-1 0-1 0-2 0 0 0-1 0-1 0-1 0-1 0-1 0-1 0-2 0-2 0-1 1-1 1-1 0-1 0-2 0-3 0-1 0-2 0-3 0 0 0-1-1-1 0-1 0-1 0-2 0 0 0-1 0-1 0-1 0-1 0-2 0 0 0 0 0-1 0 0 0-1 0-1 0-1-1-1-1-2z m-195 52l47 0c-5-12-8-25-8-39 0-7 1-14 2-20l-41 0z m228 0l264 0-59-59-199 0c1 6 2 13 2 20 0 14-3 27-8 39z m67-138c33 0 59-26 59-59 0-32-26-59-59-59-33 0-59 27-59 59 0 33 26 59 59 59z m90-19l107 0-59-59-41 0c1 6 2 12 2 19 0 14-3 28-9 40z m-385 0l205 0c-5-12-8-26-8-40 0-7 0-13 2-19l-199 0z m138-138c32 0 59-27 59-59 0-33-27-59-59-59-33 0-60 26-60 59 0 32 27 59 60 59z m90-20l264 0-59-59-199 0c1 6 2 13 2 20 0 14-3 27-8 39z m-228 0l47 0c-5-12-8-25-8-39 0-7 1-14 2-20l-41 0z"/>
<glyph glyph-name="slideshare" unicode="&#57455;" d="M61 262l0 167c0 23 18 42 40 42l309 0c22 0 40-19 40-42l0-167c2 1 3 2 5 3 13 9 22-3 14-15-16-18-46-42-92-60 49-162-118-187-116-105 0-1 0 45 0 79-3 1-7 2-11 3 0-34 0-83 0-81 2-83-165-57-116 104-46 18-76 42-91 61-9 11 0 23 13 14 2-1 4-2 5-3z m24-14c58-30 108-25 136-24 11 1 19-2 23-6 1-1 2-2 3-2 5-5 10-9 14-12 2 13 9 21 29 20 28-1 79-6 139 25l0 161c0 27-9 38-35 38l-274 0c-27 0-35-9-35-38z m235 92c28 0 52-21 52-47 0-27-24-48-52-48-29 0-52 21-52 48 0 26 23 47 52 47z m-122 0c28 0 51-21 51-47 0-27-23-48-51-48-29 0-52 21-52 48 0 26 23 47 52 47z"/>
<glyph glyph-name="slideshare-filled" unicode="&#57456;" d="M256 492c131 0 236-105 236-236 0-131-105-236-236-236-131 0-236 105-236 236 0 131 105 236 236 236z m141-239c5 8-1 16-9 10-2-1-4-2-4-2l0 112c0 16-12 29-26 29l-204 0c-14 0-28-13-28-29l0-112c0 0-1 1-3 2-8 6-13-2-8-10 11-13 30-29 61-41-32-109 78-127 76-71 0-1 0 32 0 55 3 0 6-1 8-2 0-23 0-54 0-53-1-55 109-38 77 71 30 12 49 28 60 41z m-27 107l0-108c-39-21-73-17-91-17-14 1-19-5-19-14-3 3-7 5-10 8-1 1-1 1-2 2-3 3-8 5-16 4-18 0-51-4-90 16l0 109c0 20 6 28 25 28l180 0c17 0 23-9 23-28z m-71-111c18 0 34 14 34 32 0 18-16 33-34 33-19 0-35-15-35-33 0-18 16-32 35-32z m-81 0c19 0 34 14 34 32 0 18-15 33-34 33-19 0-34-15-34-33 0-18 15-32 34-32z"/>
<glyph glyph-name="snowflake" unicode="&#57457;" d="M482 167l-10 58-87-16-72 44 74 45 85-16 10 58-68 13 13 69-58 11-16-86-67-41 0 83 61 62-41 41-51-50-49 49-41-42 61-61 0-82-67 41-16 86-59-11 14-69-68-13 10-58 85 16 74-45-72-44-87 16-10-58 68-12-13-70 58-10 16 85 68 41 0-78-62-62 41-41 51 50 49-49 41 42-61 61 0 77 67-41 16-85 59 10-14 70z"/>
<glyph glyph-name="stairs" unicode="&#57458;" d="M433 354l-79 0 0-78-78 0 0-79-79 0 0-79-118 0 0 40 79 0 0 78 78 0 0 79 79 0 0 79 118 0z m-394-315l434 0 0 434-434 0z"/>
<glyph glyph-name="stock" unicode="&#57459;" d="M295 236l-118 118-138-137 0 236c0 11 9 20 20 20l394 0c11 0 20-9 20-20l0-39z m20-59l158 158 0-276c0-11-9-20-20-20l-394 0c-11 0-20 9-20 20l0 79 138 138 118-118z"/>
<glyph glyph-name="store-front" unicode="&#57460;" d="M60 276c-22 0-39 17-39 39l78 0c0-22-17-39-39-39z m79 0c-22 0-40 17-40 39l79 0c0-22-17-39-39-39z m79 0c-22 0-40 17-40 39l79 0c0-22-18-39-39-39z m78 0c-21 0-39 17-39 39l79 0c0-22-18-39-40-39z m79 0c-22 0-39 17-39 39l79 0c0-22-18-39-40-39z m40 39l78 0c0-22-17-39-39-39-22 0-39 17-39 39z m0 138l78-118-472 0 78 118z m-1-315l0 118 40 0 0-185c0-7-5-12-12-12l-370 0c-7 0-12 5-12 12l0 185 39 0 0-118z m-275 78l196 0-39-39-157 0z"/>
<glyph glyph-name="tablet" unicode="&#57461;" d="M79 473c0 10 9 19 19 19l316 0c10 0 19-9 19-19l0-434c0-10-9-19-19-19l-316 0c-10 0-19 9-19 19z m39-375l276 0 0 335-276 0z m138-19c11 0 20-9 20-20 0-11-9-20-20-20-11 0-20 9-20 20 0 11 9 20 20 20z m-98 315l196 0 0-79-196-138z"/>
<glyph glyph-name="team" unicode="&#57462;" d="M208 252c-45 0-81 36-81 81 0 44 36 81 81 81 44 0 80-37 80-81 0-45-36-81-80-81z m51-16c66-15 115-73 115-142l0-35-335 0 0 35c0 69 50 127 115 142 16-7 34-12 53-12 19 0 37 5 52 12z m59 97c0 38-20 72-50 92 13 17 34 28 57 28 39 0 71-32 71-72 0-39-32-71-71-71-3 0-7 0-10 0 2 8 3 15 3 23z m155-164l0-31-75 0c-14 55-55 100-110 120 8 8 14 18 19 28 6-1 11-1 17-1 17 0 33 3 47 10 58-14 102-65 102-126z"/>
<glyph glyph-name="telephone" unicode="&#57463;" d="M469 101l-100 84c-5 4-13 4-18-1l-14-15c-1-1-2-2-3-3l-30-30c-37 14-73 36-102 66-30 30-52 65-66 102l30 30c1 1 2 2 3 3l15 14c5 5 5 13 1 18l-84 100c-4 5-12 5-16 0l-38-37c-1-1-2-2-2-3l-5-4 0 0 0 0c-6-100 29-202 106-279 77-77 179-112 279-106l0 0 0 0 5 5c0 1 1 1 2 2l37 38c5 4 5 12 0 16"/>
<glyph glyph-name="ticket" unicode="&#57464;" d="M236 159l0-21 40-20 0 42c26 6 44 25 44 55 0 30-15 43-55 59-28 12-34 17-34 30 0 11 8 20 27 20 16 0 32-6 47-15l5 34c-10 5-21 9-34 10l0 21-40 20 0-42c-25-7-41-25-41-51 0-30 15-42 53-58 29-12 36-18 36-32 0-15-12-23-30-23-19 0-40 7-56 17l-6-34c13-6 28-11 44-12z m-157 314c0 10 9 19 19 19l316 0c10 0 19-9 19-19l0-434c0-10-9-19-19-19l-316 0c-10 0-19 9-19 19z m236-434l-20-19 40 0 0 19z m59 0l-20-19 40 0 0 19z m-118 0l-20-19 40 0 0 19z m-59 0l-20-19 40 0 0 19z m-59 0l-20-19 40 0 0 19z m177 434l20 19-40 0 0-19z m59 0l20 19-40 0 0-19z m-118 0l20 19-40 0 0-19z m-59 0l20 19-40 0 0-19z m-59 0l20 19-40 0 0-19z"/>
<glyph glyph-name="ticket-bbva-office" unicode="&#57465;" d="M118 276l0 39 138 0-39-39z m0 118l236 0-39-40-197 0z m100-221c0 2 0 3 0 5 0 86 70 157 157 157 13 0 26-2 39-5l0 143c0 10-9 19-20 19l-20 0-20-19-19 0 0 19-20 0-20-19-19 0 0 19-20 0-20-19-19 0 0 19-20 0-20-19-19 0 0 19-20 0-20-19-20 0 0 19-19 0c-11 0-20-9-20-19l0-434c0-10 9-19 20-19l19 0 20 19 20 0 0-19 20 0 19 19 20 0 0-19 20 0 19 19 20 0 0-19 20 0 5 5c-31 35-62 86-63 148z m167-61l-51 0 0 118 53 0c25 0 34-20 21-38l-6-9c42-20 29-71-17-71m-10 183c65 0 117-52 117-117 0-1 0-3 0-4-2-103-108-170-108-170-5-3-14-3-19 0 0 0-105 67-108 170 0 2 0 3 0 4 0 65 53 117 118 117z m-1-117l11 16c2 4 3 7 3 9 0 8-7 15-15 15l-16 0 0-94 9 0c15 0 26 8 26 27 0 16-7 25-18 27z"/>
<glyph glyph-name="ticket-stub" unicode="&#57466;" d="M138 217l39 0 0 78-39 0z m354 103l0 100c0 7-5 13-13 13l-302 0 0-79-39 0 0 79-105 0c-8 0-13-6-13-13l0-100c33 0 62-29 62-64 0-36-29-64-62-64l0-100c0-7 5-13 13-13l105 0 0 79 39 0 0-79 302 0c8 0 13 6 13 13l0 100c-34 0-62 28-62 64 0 35 28 64 62 64z"/>
<glyph glyph-name="token" unicode="&#57467;" d="M315 295l0 20c0 33-26 59-59 59-33 0-59-26-59-59l0-20 0 0c-11 0-20-8-20-19l0-99c0-11 9-19 20-19l118 0c11 0 20 8 20 19l0 99c0 11-9 19-20 19z m-20 0l-78 0 0 20c0 22 17 39 39 39 22 0 39-17 39-39z m-256 158c0 11 9 20 20 20l394 0c11 0 20-9 20-20l0-138c0-276-217-295-217-295 0 0-217 19-217 295z m178-217l78 0-19-19-59 0z"/>
<glyph glyph-name="tools" unicode="&#57468;" d="M106 60c-12-12-30-12-42 0-11 11-11 30 0 41 12 11 30 11 42 0 11-11 11-30 0-41m355 244c-30-30-72-39-110-27l-250-250c-10-9-25-9-34 0l-36 36c-9 9-9 24 0 33l251 251c-12 37-4 80 26 110 30 29 71 37 109 24l-67-66c-9-9-9-24 0-33l36-36c9-9 24-9 33 0l67 66c12-37 5-79-25-108z m24-195c10-9 10-24 0-33l-49-49c-9-10-24-10-33 0l-121 120 27 28 96-96 56 0-124 124 28 27z m-358 248l-52-3-55 111 27 27 111-55-3-52 57-58-27-27z"/>
<glyph glyph-name="transfer" unicode="&#57469;" d="M20 354l138 119 0-79 236 0-79-79-157 0 0-79z m472-196l-138-119 0 79-236 0 79 79 157 0 0 79z"/>
<glyph glyph-name="transfer-to-account" unicode="&#57470;" d="M473 315l39 39 0-275-473 0 40 39 394 0z m-473-157l0 275 433 0 0-275z m59 177l79 0 39 39-118 0z m197-79l-79 59 0-39-79 0-39-40 118 0 0-39z"/>
<glyph glyph-name="transfer-to-card" unicode="&#57471;" d="M20 414c0 10 9 19 19 19l434 0c10 0 19-9 19-19l0-316c0-10-9-19-19-19l-434 0c-10 0-19 9-19 19z m0-60l0-39 354 0 40 39z m433-177l-79 59 0-39-79 0-39-39 118 0 0-40z"/>
<glyph glyph-name="trash" unicode="&#57472;" d="M128 453l49 0 0 19c0 11 9 20 20 20l118 0c11 0 20-8 20-20l0-19 138 0 0-59-40 0 0-355c0-10-9-19-19-19l-316 0c-10 0-19 8-19 19l0 355-40 0 0 59z m49-374l0 177-39 0 0-138z m99 0l0 177-40 0 0-138z m98 0l0 177-39 0 0-138z"/>
<glyph glyph-name="travel" unicode="&#57473;" d="M512 98l0-39-59 0c0-22-18-39-39-39-22 0-40 17-40 39l-177 0c0-22-18-39-39-39-22 0-40 17-40 39l-61 0c-10 0-18 8-18 17l0 357-39 0 0 40 63 0c9 0 16-8 16-17l0-358z m-32 304c7 0 12-6 12-12l0-240c0-7-5-12-12-12l-350 0c-7 0-12 5-12 12l0 240c0 6 5 12 12 12l77 0 0 61 1 0c0 6 5 10 11 10l173 0c6 0 13-5 13-12l-1-59z m-203-99l39 40-139 0 0-40z m-29 99l118 0 0 31-118 0z"/>
<glyph glyph-name="turnbox" unicode="&#57474;" d="M375 207l-21 0 0 84-20-5-3 18 24 7 20 0z m-97-3c-28 0-44 22-44 55 0 33 16 54 44 54 27 0 43-21 43-54 0-33-16-55-43-55z m-98 0c-27 0-43 22-43 55 0 33 16 54 43 54 28 0 44-21 44-54 0-33-16-55-44-55z m196 288l37 0 0-318c0-5-3-13-7-17l-136-132c-8-7-20-7-28 0l-136 132c-4 4-8 11-8 17l0 318 38 0 85-80c19-19 51-19 70 0z m-98-197c-14 0-21-12-21-36 0-24 7-36 21-36 13 0 20 12 20 36 0 24-7 36-20 36z m-98 0c-13 0-21-12-21-36 0-24 8-36 21-36 14 0 21 12 21 36 0 24-8 36-21 36z"/>
<glyph glyph-name="tv" unicode="&#57475;" d="M59 138l394 0 0 236-394 0z m414 276l-193 0 72 72-39 0-59-59-59 59-39 0 72-72-189 0c-10 0-19-9-19-20l0-276c0-10 9-19 19-19l434 0c10 0 19 8 19 19l0 276c0 11-9 20-19 20z m-119-79l-256 0 0-158 99 0z m-235-315l275 0 0 39-275 0z"/>
<glyph glyph-name="twitter" unicode="&#57476;" d="M430 325c0-105-85-227-241-227-48 0-92 14-130 36 7-1 13-1 21-1 39 0 76 13 105 34-38 1-69 24-79 55 5 0 10-1 16-1 7 0 15 1 22 3-39 7-68 39-68 78l0 1c11-6 24-10 38-10-23 14-38 38-38 66 0 15 5 28 12 40 42-48 104-80 175-83-2 6-2 12-2 18 0 44 37 80 84 80 25 0 47-10 62-26 19 4 38 11 54 20-6-19-20-34-37-44 17 2 33 6 49 12-12-16-26-30-43-41 0-3 0-7 0-10"/>
<glyph glyph-name="twitter-filled" unicode="&#57477;" d="M20 256c0 131 105 236 236 236 131 0 236-105 236-236 0-131-105-236-236-236-131 0-236 105-236 236z m354 56c11 8 22 18 30 29-11-4-23-7-35-9 13 7 22 18 27 31-12-6-25-11-39-13-11 11-27 18-44 18-34 0-61-26-61-57 0-4 0-8 1-13-50 3-95 25-125 59-6-8-10-18-10-28 0-20 9-37 26-47-10 0-32 3-32 7l0-1c0-27 25-50 53-55-5-1-7-2-12-2-4 0-8 1-12 1 8-22 30-38 57-39-21-15-47-24-75-24-5 0-10 0-15 1 27-16 59-26 93-26 112 0 173 86 173 161 0 2 0 5 0 7z"/>
<glyph glyph-name="unhappy-face" unicode="&#57478;" d="M138 138l236 0 0 39-236 0z m-14 177c0 22 18 39 39 39 22 0 40-17 40-39 0-22-18-39-40-39-21 0-39 17-39 39z m185 0c0 22 18 39 40 39 21 0 39-17 39-39 0-22-18-39-39-39-22 0-40 17-40 39z m183-59c0 131-105 236-236 236-131 0-236-105-236-236 0-131 105-236 236-236 131 0 236 105 236 236z"/>
<glyph glyph-name="unlock" unicode="&#57479;" d="M378 418l-29-30c-14 38-50 65-93 65-54 0-98-44-98-98l0-60 256 0c10 0 19-8 19-19l0-236c0-11-9-20-19-20l-316 0c-10 0-19 9-19 20l0 236c0 11 9 19 19 19l20 0 0 60c0 76 62 137 138 137 53 0 100-30 122-74z m-142-182l0-118 40-39 0 157z"/>
<glyph glyph-name="update" unicode="&#57480;" d="M447 395c-43 59-112 97-191 97-131 0-236-105-236-236 0-131 105-236 236-236 106 0 196 70 226 166l-57 18c-22-73-89-125-169-125-98 0-177 79-177 177 0 98 79 177 177 177 61 0 114-30 146-77l-48-41 138-39 0 157z"/>
<glyph glyph-name="video-chat" unicode="&#57481;" d="M98 98l-78-78 0 413c0 11 9 20 19 20l434 0c10 0 19-9 19-20l0-315c0-11-9-20-19-20z m40 237l0-118c0-11 9-20 19-20l158 0c11 0 20 9 20 20l0 118c0 11-9 19-20 19l-158 0c-10 0-19-8-19-19z m197-40l0-39 59-39 0 118z"/>
<glyph glyph-name="vr" unicode="&#57482;" d="M207 342l-19 32-11 0 0-31-17 0 0 82 30 0c21 0 33-7 33-25 0-13-6-20-17-24l18-32z m-17 68l-13 0 0-22 13 0c10 0 15 3 15 11 0 8-5 11-15 11m-67-67l-17 0-28 81 17 2 20-60 0 0 19 59 17 0z m152-16c0-7-5-12-11-12l-213 0c-7 0-12 5-12 12l0 114c0 7 5 12 12 12l213 0c6 0 11-5 11-12z m-79-112c0 38 31 69 69 69l0-69 49 48c12-12 20-29 20-48 0-38-31-69-69-69-38 0-69 31-69 69z m119 149c116-28 156-149 156-149 0 0-51-155-206-155-155 0-206 155-206 155 0 0 9 28 32 61l91 0c-13-17-20-38-20-61 0-57 46-103 103-103 57 0 103 46 103 103 0 39-21 73-53 90z"/>
<glyph glyph-name="walking" unicode="&#57483;" d="M233 130l-22-51-1-1-1-1-52-55-2-2-76 0 11 12 66 76-2-2 27 71 4 11 9-9 38-41 3-3z m105 309c0-29-24-53-53-53-29 0-53 24-53 53 0 29 24 53 53 53 29 0 53-24 53-53z m-45-168l-11-45 63-87 48-119-79 0-35 103-84 93 23 97c0 0-30-16-31-17l-47-63-44 34 65 78 74 38c0 0 13-10 17-12 8-4 16-7 25-8 11-2 22-1 32 1 2 1 15 5 15 5l31-91 59-22-18-54-84 33z"/>
<glyph glyph-name="warning" unicode="&#57484;" d="M268 483l222-422c6-12 0-22-15-22l-438 0c-15 0-21 10-15 22l222 422c7 12 17 12 24 0z m8-286l0 118-40 39 0-157z m-20-39c-16 0-30-14-30-30 0-16 14-30 30-30 16 0 30 14 30 30 0 16-14 30-30 30z"/>
<glyph glyph-name="watch" unicode="&#57485;" d="M138 256c0 65 53 118 118 118 65 0 118-53 118-118 0-65-53-118-118-118-65 0-118 53-118 118m276 0c0 50-24 95-60 124l-19 112-158 0-19-112c-36-29-60-74-60-124 0-50 24-95 60-124l19-112 158 0 19 112c36 29 60 74 60 124"/>
<glyph glyph-name="wellness" unicode="&#57486;" d="M256 20c-131 0-236 105-236 236 0 131 105 236 236 236 131 0 236-105 236-236 0-131-105-236-236-236z m-138 266l0-11c1-78 138-157 138-157 0 0 138 79 138 158 0 0 0 3 0 10 0 38-31 68-69 68-35 0-64-25-68-59-1 0-1 0-2 0-4 34-33 59-68 59-38 0-69-30-69-68z"/>
<glyph glyph-name="woman" unicode="&#57487;" d="M209 393l79 0 59-236-40 0 0-138-39 0 0 138-40 0 0-138-39 0 0 138-39 0z m170-156l-32 11-40 145 31 0z m-189 156l-40-145-32-11 42 156z m31 32l-12 0c0 21-8 67 40 67 47 0 39-46 39-67l-12 0c-7-7-17-12-27-12-11 0-21 5-28 12z"/>
<glyph glyph-name="word-doc" unicode="&#57488;" d="M79 473c0 10 9 19 20 19l216 0 118-118 0-335c0-11-9-19-19-19l-316 0c-10 0-19 9-19 19z m176-276c25 0 51 16 51 54 0 39-26 55-51 55-26 0-52-16-52-55 0-38 26-54 52-54z m0 85c15 0 23-11 23-31 0-19-8-31-23-31-15 0-23 12-23 31 0 20 8 31 23 31z m-118-83c30 0 57 12 57 53 0 40-26 51-57 51l-35 0 0-104z m1 81c21 0 28-9 28-28 0-21-6-29-28-29l-8 0 0 57z m226-83c29 0 41 15 46 37l-27 6c-3-13-7-20-18-20-14 0-21 12-21 31 0 20 6 31 20 31 11 0 15-8 18-18l27 8c-5 19-16 34-45 34-26 0-49-16-49-55 0-38 22-54 49-54z"/>
<glyph glyph-name="x" unicode="&#57489;" d="M395 423l-139-139-137 137-28-28 137-137-139-139 30-31 140 140 139-140 28 28-140 140 140 139z"/>
<glyph glyph-name="x-filled" unicode="&#57490;" d="M284 256l103 103-28 28-103-103-103 103-28-28 103-103-103-103 28-28 103 103 103-103 28 28z m-28-236c-131 0-236 105-236 236 0 131 105 236 236 236 131 0 236-105 236-236 0-131-105-236-236-236z"/>
<glyph glyph-name="xls-doc" unicode="&#57491;" d="M79 473c0 10 9 19 20 19l216 0 118-118 0-335c0-11-9-19-19-19l-316 0c-10 0-19 9-19 19z m228-251c9-14 23-25 47-25 32 0 44 17 44 33 0 24-23 29-40 33-10 3-19 5-19 12 0 5 4 8 13 8 9 0 19-6 25-13l19 15c-9 10-22 21-44 21-24 0-40-12-40-33 0-24 23-29 40-33 10-3 18-5 18-12 0-6-6-9-15-9-11 0-21 6-27 16z m-6-23l0 24-45 0 0 80-28 0 0-104z m-119 0l32 0-33 54 29 50-29 0-14-27-16 27-32 0 30-49-33-55 30 0 18 32z"/>
<glyph glyph-name="xml-doc" unicode="&#57492;" d="M335 197l0 105 27 0 0-83 43 0 4-22z m-17 0l-26 0 0 55c0-2-1-5-2-7l0 0-16-49-23 0-16 49c-1 3-1 5-2 7l0-56-24 0 0 106 33 0 22-70 20 70 34 0 0-105z m-147-2l-22 35-20-33-29 0 35 55-30 48 28 4 18-31 16 29 28 0-30-50 33-54z m145 296l-225 0c-7 0-14-6-14-13l0-446c0-7 7-12 14-12l331 0c7 0 11 5 11 12l0 341z"/>
<glyph glyph-name="youtube" unicode="&#57493;" d="M207 204l0 134 128-67z m281 157c0 0-5 33-19 47-18 19-38 19-48 20-66 5-165 5-165 5l0 0c0 0-99 0-165-5-10-1-30-1-48-20-14-14-19-47-19-47 0 0-4-39-4-77l0-36c0-39 4-77 4-77 0 0 5-33 19-47 18-19 42-19 52-21 38-3 161-5 161-5 0 0 99 1 165 5 10 2 30 2 48 21 14 14 19 47 19 47 0 0 4 38 4 77l0 36c0 38-4 77-4 77z"/>
<glyph glyph-name="youtube-filled" unicode="&#57494;" d="M20 256c0 131 105 236 236 236 131 0 236-105 236-236 0-131-105-236-236-236-131 0-236 105-236 236z m388-11l0 23c0 25-4 50-4 50 0 0-4 21-13 30-11 12-24 13-30 14-42 3-106 5-106 5l0 0c0 0-63-2-105-5-6-1-18-3-30-15-9-9-11-30-11-30 0 0 0-24 0-49l0-23c0-24 0-48 0-48 0 0 1-21 10-30 12-12 27-12 34-13 24-3 102-3 102-3 0 0 64 0 106 3 6 1 19 1 31 13 9 9 12 30 12 30 0 0 4 24 4 48z m-181-27l0 84 81-42z"/>
<glyph glyph-name="account" unicode="&#97;" d="M0 158l433 0 0 275-433 0z m59 177l79 0 39 39-118 0z m0-59l276 0-39-40-237 0z m414 39l0-197-394 0-40-39 473 0 0 275z"/>
<glyph glyph-name="at" unicode="&#98;" d="M280 212l15 94c-13 15-25 21-44 21-41 0-60-47-60-94 0-29 9-46 39-46 18 0 36 11 50 25m-265 43c0 136 98 237 242 237 144 0 240-96 240-230 0-82-43-140-121-140-49 0-71 22-82 55-22-24-52-47-96-47-51 0-83 34-83 95 0 101 54 165 118 165 39 0 57-15 71-32l4 27 75 0-30-184c-5-25 5-39 34-39 39 0 67 36 67 98 0 112-78 190-197 190-120 0-195-81-195-195 0-114 72-197 192-197 45 0 83 10 115 31l21-30c-36-25-85-39-140-39-145 0-235 99-235 235"/>
<glyph glyph-name="list-bullet" unicode="&#57495;" d="M512 73l-512 0 167 366 345 0z"/>
<glyph glyph-name="arrow-down" unicode="&#57496;" d="M64 196l192-196 192 196-45 45-118-121 1 332-60 60 0-392-118 121z"/>
<glyph glyph-name="arrow-up" unicode="&#57497;" d="M448 316l-192 196-192-196 45-45 118 121-1-332 60-60 0 392 118-121z"/>
<glyph glyph-name="arrow-right" unicode="&#57498;" d="M316 64l196 192-196 192-45-45 121-118-332 1-60-60 392 0-121-118z"/>
<glyph glyph-name="filled-left" unicode="&#57499;" d="M256 0c141 0 256 115 256 256 0 141-115 256-256 256-141 0-256-115-256-256 0-141 115-256 256-256z m-11 160l-32-32-128 128 128 128 32-32-74-75 256 0-43-42-213 0z"/>
<glyph glyph-name="archive" unicode="&#57445;" d="M460 451l-447 0c-6 0-11-5-11-11l0-330c0-6 5-11 11-11l229 0c-16 26-25 56-25 88 0 19 3 38 9 55l-185 112 0 46 195-118 0 0 8-4c30 45 81 75 139 75 32 0 63-9 88-25l0 112c0 6-5 11-11 11m-143-283l16 15 39-40 0 129 21-21 0-108 40 40 16-15-66-66z m193 19c0 70-57 127-127 127-70 0-127-57-127-127 0-70 57-127 127-127 70 0 127 57 127 127z"/>
<glyph glyph-name="favorite" unicode="&#57500;" d="M329 354l-74 156-73-156c-3-7-9-12-17-14l-163-25c0 0 0 0 0 0l120-122c5-5 7-12 6-20l-27-172c0 0 0 0 0 0l145 81c7 4 16 4 23 0l147-80 0 0-30 172c-1 7 1 15 6 20l118 123c0 0 0 0 0 0l-163 24c-8 1-15 6-18 13"/>
<glyph glyph-name="attach" unicode="&#57501;" d="M402 99l-52 52c-5-48-46-86-95-86-52 0-95 43-95 96l0 95-64 64 0-159c0-88 71-159 159-159 66 0 123 40 147 97z m-147 348c53 0 96-43 96-96l0-116 63-64 0 180c0 88-71 159-159 159-71 0-132-47-152-113l57-56 0 10c0 53 43 96 95 96z m-32-64l0-191 64-63 0 191z"/>
<glyph glyph-name="rotate-screen" unicode="&#57502;" d="M505 321c7-7 7-18 0-26l-288-288c-8-7-19-7-26 0l-184 184c-7 7-7 18 0 26l158 158c14-1 27-6 39-14l-131-131 157-157 235 235-157 158-21-22c-10 8-20 16-31 22l39 39c7 7 19 7 26 0z m-366-210c7 8 7 20 0 28-8 7-20 7-28 0-7-8-7-20 0-28 8-7 20-7 28 0z m148 278l30 25 0-104-91 26 31 27c-21 31-56 51-96 51-38 0-71-17-93-45l-27 28c29 35 72 56 120 56 52 0 98-25 126-64z"/>
<glyph glyph-name="receipt-denied" unicode="&#57503;" d="M425 510c12 0 21-8 21-20l0-466c0-12-9-22-21-22l-21 0 0 21-22 0-21-21-21 0 0 21-21 0-21-21-21 0 0 21-22 0-21-21-21 0 0 21-21 0-21-21-22 0 0 21-21 0-21-21-21 0c-12 0-21 10-21 22l0 466c0 12 9 20 21 20l21 0 0-21 21 0 21 21 22 0 0-21 21 0 21 21 21 0 0-21 21 0 22 21 21 0 0-21 21 0 21 21 21 0 0-21 21 0 22 21z m-64-337l-81 82 81 81-25 26-82-82-79 80-23-24 79-79-82-81 26-26 82 82 81-82z"/>
<glyph glyph-name="ticket-euro" unicode="&#57504;" d="M425 510c12 0 21-9 21-21l0-466c0-12-9-21-21-21l-21 0 0 21-22 0-21-21-21 0 0 21-21 0-21-21-21 0 0 21-22 0-21-21-21 0 0 21-21 0-21-21-22 0 0 21-21 0-21-21-21 0c-12 0-21 9-21 21l0 466c0 12 9 21 21 21l21 0 0-21 21 0 21 21 22 0 0-21 21 0 21 21 21 0 0-21 21 0 22 21 21 0 0-21 21 0 21 21 21 0 0-21 21 0 22 21z m-145-222l-73 0c12 20 34 34 59 34 19 0 36-8 48-20l19 19c-17 18-41 28-67 28-50 0-91-39-95-88l0 0 0 0c0-3 0-5 0-7 0-53 42-95 95-95 26 0 50 10 67 27l-19 20c-12-13-29-20-48-20-25 0-47 13-59 34l45 0 28 27-82 0c0 2 0 5 0 7 0 2 0 4 0 7l54 0z"/>
<glyph glyph-name="periodical-transfer" unicode="&#57505;" d="M164 124l38 0c2-22 7-42 15-61l-193 0c-11 0-22 12-22 23l0 366c0 11 11 18 22 18l39 0 0 40 40 0 0-40 245 0 0 40 40 0 0-40 43 0c11 0 18-7 18-18l0-153c-21 9-44 14-69 14-4 0-8 0-12-1l0 15-41 0 0-22c-63-20-111-74-123-141l-40 0z m-101 285l0-41 287 0 40 41z m20-204l41 0 0 41-41 0z m0-81l41 0 0 40-41 0z m163 163l41 0 0 40-41 0z m-82 0l41 0 0 40-41 0z m0-82l41 0 0 41-41 0z m214 61c73 0 132-59 132-132 0-73-59-132-132-132-73 0-132 59-132 132 0 73 59 132 132 132z m20-200l68 68-68 68-16-16 42-42-112 0-22-22 134 1-41-42z"/>
<glyph glyph-name="vacations" unicode="&#57506;" d="M287 153l-41 102 36 13 46-115z m82 176c-31 88-104 147-190 159 110 38 232-20 270-131z m-242-85l-81-28c-38 111 20 233 130 271-60-62-80-155-49-243z m41 14c-31 88-25 176 10 229l0 0c61-20 120-85 151-172z m342-60l-135-137c-5-5-11-8-17-8l-4 0 14-40-41 0-13 40-238 0-13-40-41 0 14 40-34 0 0 37c0 13 11 24 24 24l322 0 81 82c24 23 57 26 81 2z"/>
<glyph glyph-name="occupationally-active" unicode="&#57507;" d="M489 405c12 0 21-10 21-22l0-339c0-11-9-21-21-21l-466 0c-12 0-21 10-21 21l0 339c0 12 9 22 21 22l106 0 0 63c0 12 10 21 21 21l212 0c12 0 21-9 21-21l0-63z m-266-274l100 75-100 74z m-52 274l170 0 0 42-170 0z"/>
<glyph glyph-name="land" unicode="&#57508;" d="M482 510c16 0 28-12 28-28l0-452c0-16-12-28-28-28l-452 0c-16 0-28 12-28 28l0 452c0 16 12 28 28 28z m-196-311l90 0-4 21-54 0c0 7 12 16 29 27 23 14 26 26 26 39 0 22-14 35-40 35-21 0-35-9-45-25l17-14c7 11 18 17 27 17 10 0 16-5 16-14 0-12-7-17-26-29-32-20-36-37-36-54z m-16 0l0 120-36 0-25-88 0 0-27 88-35 0 0-120 24 0 0 83 0 0c3-13 5-19 7-28l18-55 23 0 18 55c3 9 5 17 7 27l0 0 0-82z"/>
<glyph glyph-name="functional-square" unicode="&#57509;" d="M482 510c16 0 28-12 28-28l0-452c0-16-12-28-28-28l-452 0c-16 0-28 12-28 28l0 452c0 16 12 28 28 28z m-434-462l416 0 0 416-416 0z m46 46l0 324 324 0 0-324z m186 101l90 0-4 21-55 0c1 7 12 16 29 27 23 14 27 26 27 39 0 21-15 35-41 35-21 0-35-10-45-25l18-14c7 11 17 17 27 17 10 0 15-6 15-15 0-12-7-16-26-28-31-20-35-37-35-54z m-17 0l0 120-35 0-25-88-1 0-26 88-35 0 0-120 23 0 0 83 1 0c2-14 4-19 7-28l18-55 23 0 18 55c2 9 5 16 6 27l1 0 0-82z"/>
<glyph glyph-name="commercial-promotion" unicode="&#57510;" d="M338 308c-95 0-173-78-173-173 0-43 16-83 42-113l-151 0c-7 0-12 6-12 12l0 464c0 7 5 12 12 12l342 0c6 0 12-5 12-12l0-206c-22 10-46 16-72 16z m-233 60l0-41 101 0 41 41z m0 81l0-40 199 0 41 40z m232-183c73 0 132-59 132-132 0-73-59-132-132-132-73 0-133 59-133 132 0 73 60 132 133 132z m46-198l-12 53 41 35-54 5-21 49-20-49-54-5 41-35-12-53 45 28z"/>
<glyph glyph-name="built-land" unicode="&#57511;" d="M482 510c16 0 28-12 28-28l0-452c0-16-12-28-28-28l-452 0c-16 0-28 12-28 28l0 452c0 16 12 28 28 28z m-434-462l416 0 0 416-416 0z m231 148l0 3c0 17 4 34 36 54 19 12 26 17 26 29 0 9-6 14-16 14-9 0-20-6-27-17l-17 14c10 16 24 25 45 25 26 0 40-13 40-34 0-14-3-25-26-40-17-11-29-20-30-27l55 0 4-21z m-16 0l-26 0 0 82 0 0c-2-10-4-18-7-27l-18-55-23 0-18 55c-2 9-4 15-7 28l0 0 0-83-24 0 0 120 35 0 27-88 0 0 25 88 36 0z"/>
<glyph glyph-name="bus" unicode="&#57512;" d="M486 371c13 0 24-11 24-24l0-44c0-14-11-24-24-24l-21 0 0-186c0-13-10-23-23-23l0-46c0-13-10-23-24-23l-36 0c-11 0-21 9-21 21l0 48-211 0 0-50c0-11-9-19-20-19l-38 0c-11 0-20 8-20 20l0 49c-13 0-24 10-24 23l0 186-22 0c-13 0-24 10-24 24l0 44c0 13 11 24 24 24l22 0 0 115c0 14 11 24 24 24l370 0c13 0 23-10 23-24l0-115z m-47-246c15 31-16 61-47 47-7-3-12-8-15-15-14-31 16-62 48-47 6 3 11 8 14 15z m-344 84l324 0 0 190c0 7-6 12-14 12l-296 0c-8 0-14-5-14-12z m41-84c15 31-15 61-47 47-6-3-11-8-14-15-15-31 16-62 47-47 6 3 11 8 14 15z"/>
<glyph glyph-name="motorcycle-garage" unicode="&#57513;" d="M13 510l485 0 0-43-443 0 0-442-42 0z m275-312c14 0 25-12 25-26l0-145c0-14-11-25-25-25-14 0-26 11-26 25l0 145c0 14 12 26 26 26z m42 186c0-24-19-43-43-43-23 0-42 19-42 43 0 23 19 42 42 42 24 0 43-19 43-42z m-211-22l0 43 84 0 0-43z m253 0l0 43 84 0 0-43z m-6-44c14 0 25-11 25-25l0-248-42 0 0 128c0 34-28 62-62 62-34 0-62-28-62-62l0-128-43 0 0 248c0 14 11 25 25 25l26 0c15-12 33-20 54-20 20 0 39 8 53 20z"/>
<glyph glyph-name="workshop" unicode="&#57514;" d="M129 396l-32-106 244 0 0-233-225 0 0-20c0-12-9-23-22-23l-27 0c-13 0-23 11-23 23l0 183-19 0c-13 0-23 11-23 23l0 24c0 12 10 23 23 23l24 0 44 144c0 2 3 4 6 4l187 0c-1-7-2-14-2-21 0-7 1-14 2-21z m-11-170c-17 0-31-14-31-32 0-17 14-31 31-31 18 0 32 14 32 31 0 18-14 32-32 32z m336 274c33-14 56-47 56-85 0-38-23-71-56-85l0-292c0-14-11-26-25-26l-22 0c-14 0-25 12-25 26l0 292c-33 14-56 47-56 85 0 38 24 70 57 84l0-80c0-14 11-25 25-25l21 0c14 0 25 11 25 25l0 81z"/>
<glyph glyph-name="airplane" unicode="&#57515;" d="M496 496c-20 19-52 19-71 0l-96-96-265 51c-7 2-16-1-21-6l-19-20 206-124-96-97-111-3c-5-1-9-3-12-6l-9-9 124-60 60-124 9 9c3 3 5 7 6 12l3 111 97 96 124-206 20 19c5 5 8 14 6 21l-51 265 96 96c19 19 19 51 0 71"/>
<glyph glyph-name="campus" unicode="&#57516;" d="M256 481l254-215-39-40-215 176-215-176-39 40z m0-118l196-156 0-157c0-10-9-19-20-19l-352 0c-11 0-20 9-20 19l0 157z m4-274c39 0 60 20 70 49l-32 11c-6-17-18-30-38-30-27 0-40 23-40 58 0 35 12 57 38 57 19 0 30-12 36-26l31 16c-12 27-33 41-67 41-42 0-76-29-76-88 0-59 34-88 78-88z"/>
<glyph glyph-name="physiotherapy" unicode="&#57517;" d="M359 266c73 0 132-59 132-132 0-73-59-132-132-132-73 0-132 59-132 132 0 73 59 132 132 132z m72-121c0 2 0 3 0 5 0 21-16 39-36 39-18 0-33-15-35-33 0 0-1 0-1 0l0 0c0 0 0 0 0 0-3 18-17 33-36 33-19 0-35-18-35-39 0-2 0-3 0-5 0-44 71-88 71-88 0 0 72 44 72 88z m-297 162l-49-66-45 35 66 81 78 39c0 0 13-10 17-12 8-4 17-7 26-8 11-2 22-1 33 1 2 1 15 6 15 6l29-86c-20-6-38-16-54-29l-6 13-6-24c-24-23-41-53-48-86l-48 53 24 101c0 0-31-17-32-18z m101 93c-30 0-55 25-55 55 0 31 25 55 55 55 30 0 55-24 55-55 0-30-25-55-55-55z m-95-214l40-42 3-4-2-5-23-52 0-1-1-1-54-57-3-3-78 0 11 13 67 78 27 71 5 12z"/>
<glyph glyph-name="pill" unicode="&#57518;" d="M470 470c54-54 54-143-1-197l-230-230c-54-55-143-55-197-1-54 54-54 143 1 197l230 230c54 55 143 55 197 1z m-267-392l115 116-124 124-116-115c-34-35-35-91 0-125 34-35 90-34 125 0z m251 344c-44 44-117 44-161-1l35-36c25 25 66 26 90 1z"/>
<glyph glyph-name="partner" unicode="&#57519;" d="M266 87c29-7 60-8 89-4-6-8-13-17-21-24-76-76-199-76-274 0-76 75-76 198 0 274 7 8 16 15 24 21-4-30-3-60 4-89-32-50-26-117 17-161 44-43 111-49 161-17z m186 366c76-75 76-198 0-274-75-76-198-76-274 0-76 76-76 199 0 274 76 76 199 76 274 0z m-125-170c38 0 77 10 77 61 0 49-36 60-76 60l-69 0 0-188 41 0 0 67z m2 86c25 0 35-10 35-28 0-18-10-27-35-27l-29 0 0 55z"/>
<glyph glyph-name="theatre" unicode="&#57520;" d="M236 500l274 0 0-176c0-98-39-176-137-176-97 0-137 78-137 176z m206-118c16 0 29 13 29 30 0 16-13 29-29 29-16 0-30-13-30-29 0-17 14-30 30-30z m-69-176c54 0 98 44 98 98l-39 0c0-32-26-59-59-59-32 0-58 27-58 59l-39 0c0-54 43-98 97-98z m-68 235c-16 0-29-13-29-29 0-17 13-30 29-30 16 0 29 13 29 30 0 16-13 29-29 29z m-69-264c10-15 22-28 36-38-11-74-52-128-133-128-98 0-137 78-137 176l0 176 195 0 0-39c0-60 14-111 39-147z m-166 127c-16 0-29-13-29-29 0-17 13-30 29-30 16 0 30 13 30 30 0 16-14 29-30 29z m127-215l39 0c0 54-43 98-97 98-54 0-98-44-98-98l39 0c0 32 26 59 59 59 32 0 58-27 58-59z"/>
<glyph glyph-name="wifi" unicode="&#57521;" d="M118 169c37 34 86 54 140 54 54 0 103-20 140-54l-28-60c-29 28-69 45-112 45-44 0-83-17-113-45z m140-86c33 0 63-14 85-37l-15-32-140 0-15 32c22 23 52 37 85 37z m-2 416c95 0 182-30 254-81l-27-60c-64 45-143 71-227 71-84 0-163-26-227-71l-27 60c72 51 159 81 254 81z m-196-205c54 42 123 67 197 67 74 0 143-25 197-67l-27-60c-47 36-106 58-170 58-64 0-123-22-170-58z"/>
<glyph glyph-name="usd" unicode="&#57522;" d="M336 293l0-70 11 0c23 0 31 10 31 36 0 23-9 34-31 34z m8-92l-32 0 0 111 32 0c32 0 56-15 56-55 0-41-25-56-56-56z m-81 0l0-20-18 9 0 10c-10 1-19 4-26 7l3 20c9-6 20-10 31-10 10 0 16 5 16 13 0 8-3 12-19 19-21 8-30 15-30 32 0 16 10 27 25 30l0 20 18-9 0-10c9-1 15-3 21-6l-3-20c-8 6-17 9-26 9-10 0-15-5-15-12 0-7 4-10 19-16 22-10 30-18 30-35 0-17-10-28-26-31z m-67 44c0-27-13-44-42-44-29 0-42 17-42 44l0 67 23 0 0-67c0-16 6-24 20-24 13 0 19 8 19 24l0 67 22 0z m60 246c-130 0-235-105-235-235 0-130 105-235 235-235 130 0 235 105 235 235 0 130-105 235-235 235z"/>
<glyph glyph-name="copyright" unicode="&#57523;" d="M337 308c-95 0-173-78-173-173 0-43 16-83 42-113l-151 0c-7 0-12 6-12 12l0 464c0 7 5 12 12 12l342 0c6 0 12-5 12-12l0-206c-22 10-46 16-72 16z m-233 60l0-41 101 0 41 41z m0 81l0-40 199 0 41 40z m234-183c73 0 132-59 132-132 0-73-59-132-132-132-73 0-133 59-133 132 0 73 60 132 133 132z m1-203c26 0 51 11 64 38l-30 15c-7-15-17-24-32-24-20 0-28 17-28 42 0 27 11 41 28 41 14 0 22-6 29-21l30 15c-11 25-35 36-59 36-30 0-69-16-69-71 0-53 35-71 67-71z"/>
<glyph glyph-name="hpd" unicode="&#57524;" d="M319 510l127-127 0-368c0-7-5-13-13-13l-354 0c-8 0-14 6-14 19l0 464c0 14 11 25 25 25z m34-318c36 0 63 16 63 60 0 43-27 58-63 58l-36 0 0-118z m-97 42c24 0 49 7 49 38 0 31-23 38-48 38l-43 0 0-118 26 0 0 42z m-63-42l0 118-26 0 0-46-46 0 0 46-26 0 0-118 26 0 0 51 46 0 0-51z m161 96c26 0 36-12 36-37 0-27-10-38-36-38l-12 0 0 75z m-96 2c16 0 22-6 22-17 0-12-6-18-22-18l-17 0 0 35z"/>
<glyph glyph-name="pay-sheet" unicode="&#57525;" d="M337 307c25 0 50-6 72-16l0 97-122 122 0 0 0-128 90 0-28-32-103 0 0 160-190 0c-7 0-13-6-13-13l0-462c0-7 6-13 13-13l149 0c-26 30-41 69-41 112 0 95 77 173 173 173m1-41c73 0 132-59 132-132 0-73-59-132-132-132-73 0-133 59-133 132 0 73 60 132 133 132z m10-107l-54 0c9 15 25 25 44 25 14 0 26-6 35-15l15 15c-13 12-31 20-50 20-38 0-68-29-71-65l0 0 0 0c0-2 0-4 0-6 0-39 32-70 71-70 19 0 37 8 50 20l-15 15c-9-9-21-15-35-15-19 0-35 10-44 25l34 0 20 20-61 0c0 2 0 4 0 5 0 2 0 4 0 6l41 0z"/>
<glyph glyph-name="my-project" unicode="&#57526;" d="M319 510l127-127 0-368c0-7-5-13-13-13l-354 0c-8 0-14 6-14 13l0 482c0 7 6 13 14 13l198 0 0-169 107 0 42 36-107 0 0 133z m-43-466l0 9c0 37-24 68-58 76-8-4-17-7-26-7-10 0-19 3-27 7-34-8-58-39-58-76l0-9z m-84 191c-24 0-43-19-43-43 0-23 19-42 43-42 23 0 42 19 42 42 0 24-19 43-42 43z"/>
<glyph glyph-name="biking" unicode="&#57527;" d="M334 402c-21 0-39 18-39 40 0 21 18 39 39 39 22 0 39-18 39-39 0-22-17-40-39-40z m-21-118l-33 55-55-56 51-31 0-103c0-11-8-20-19-20-11 0-20 9-20 20l0 81-75 45-4 3c-14 8-16 27-4 37l100 91c11 10 29 7 36-6l14-25 32-52 59 0c11 0 20-9 20-20 0-11-9-19-20-19z m-204-38c60 0 108-48 108-108 0-59-48-107-108-107-59 0-107 48-107 107 0 60 48 108 107 108z m0-176c38 0 69 31 69 68 0 38-31 69-69 69-37 0-68-31-68-69 0-37 31-68 68-68z m294 176c59 0 107-48 107-108 0-59-48-107-107-107-60 0-108 48-108 107 0 60 48 108 108 108z m0-176c37 0 68 31 68 68 0 38-31 69-68 69-38 0-69-31-69-69 0-37 31-68 69-68z"/>
<glyph glyph-name="contigo" unicode="&#57528;" d="M489 489c12 0 21-9 21-21l0-339c0-12-9-21-21-21l-402 0-85-85 0 445c0 12 9 21 21 21z m-129-318l0 24c0 48-34 90-79 101-11-6-24-9-37-9-13 0-25 3-36 9-45-11-79-53-79-101l0-24z m-116 255c-31 0-57-26-57-58 0-32 26-58 57-58 32 0 58 26 58 58 0 32-26 58-58 58z m-3-212l0 23 58 0-23-23z"/>
<glyph glyph-name="my-location" unicode="&#57529;" d="M463 277l47 0 0-42-47 0c-11-98-88-175-186-186l0-47-42 0 0 47c-98 11-175 88-185 186l-48 0 0 42 48 0c10 98 87 175 185 185l0 48 42 0 0-48c98-10 175-87 186-185z m-369-21c0-90 73-162 162-162 90 0 162 72 162 162 0 89-72 162-162 162-89 0-162-73-162-162z m77 0c0 47 38 85 85 85 47 0 85-38 85-85 0-47-38-85-85-85-47 0-85 38-85 85z"/>
<glyph glyph-name="near-me" unicode="&#57530;" d="M488 509c13 5 26-8 21-21l-187-476c-2-6-8-10-15-10l-9 0c-7 0-13 4-15 10l-73 189c-2 4-5 7-9 9l-189 73c-6 2-10 8-10 15l0 9c0 7 4 13 10 15z m-185-394l123 314-172-172z"/>
<glyph glyph-name="ticket-location" unicode="&#57531;" d="M197 185c0-1 1-3 1-4 1-65 33-117 64-153l-6-6-20 0 0 20-20 0-20-20-20 0 0 20-20 0-20-20-20 0 0 20-19 0-20-20-21 0c-10 0-19 9-19 20l0 448c0 11 9 20 19 20l21 0 0-20 20 0 19 20 20 0 0-20 20 0 20 20 20 0 0-20 20 0 20 20 20 0 0-20 20 0 20 20 20 0 0-20 20 0 20 20 20 0c11 0 20-9 20-20l0-148c-13 4-26 6-39 6-88 0-160-73-160-163z m-100 102l69 0 40 40-109 0z m0 122l0-41 199 0 40 41z m259-102c66 0 120-55 120-122 0-1 0-3 0-4-3-108-110-177-110-177-6-3-15-3-20 1 0 0-107 68-110 176 0 1 0 3 0 4 0 67 54 122 120 122z m0-183c33 0 60 27 60 61 0 34-27 61-60 61-33 0-60-27-60-61 0-34 27-61 60-61z"/>
<glyph glyph-name="360-view" unicode="&#57532;" d="M321 510c0 0 1 0 1 0 11 0 20-10 20-21l0-85-43 0 0 64-254 0 0-381 254 0 0 63 43 0 0-127c0 0 0 0 0-1 0-11-9-20-21-20l-296 0c-12 0-22 9-22 21l0 466c0 12 10 21 22 21z m-148-445l0 0 0 0c-12 0-21-9-21-21 0-12 9-21 21-21 12 0 21 9 21 21 0 12-9 21-21 21z m251 299l86-85-85-84-20 20 52 50-115 0 0 27 115 0-53 52z m-128-70l0-27-115 0 53-52-20-20-86 85 85 84 20-19-52-51z"/>
<glyph glyph-name="blind-app" unicode="&#57533;" d="M321 129l43 0 0-106c0-12-9-21-21-21l-296 0c-12 0-22 9-22 21l0 466c0 12 10 21 22 21l296 0c12 0 21-9 21-21l0-64-43 0 0 43-254 0 0-381 254 0z m-126-106c12 0 21 9 21 21 0 12-9 21-21 21-12 0-21-9-21-21 0-12 9-21 21-21z m160 258l-73-73-15-14-68-67 0 39 31 30c-41 34-57 79-57 79 0 0 40 116 157 116 32 0 57-8 78-20l40 40 0-39-17-17-19-19-38-38z m-92-52l20 19c-3 6-5 13-5 21 0 28 24 52 52 52 8 0 15-2 22-5l19 19c-12 7-26 11-41 11-43 0-78-34-78-77 0-15 4-28 11-40z m188 107c26-30 37-61 37-61 0 0-40-115-158-115-18 0-35 3-50 8l28 27c7-2 15-3 22-3 44 0 79 34 79 77 0 8-1 15-3 22z m-68-67l-53-51c29 0 53 23 53 51z"/>
<glyph glyph-name="business-intelligent" unicode="&#57534;" d="M403 510c12 0 22-9 22-21l0-466c0-12-10-21-22-21l-296 0c-12 0-21 9-21 21l0 466c0 12 9 21 21 21z m-275-423l254 0 0 381-254 0z m127-64c12 0 21 9 21 21 0 12-9 21-21 21-12 0-21-9-21-21 0-12 9-21 21-21z m0 254l106 0c0-58-47-106-106-106-58 0-106 48-106 106 0 59 48 106 106 106z m104 21l-83 0 0 83c42-9 74-41 83-83z"/>
<glyph glyph-name="mobile-print" unicode="&#57535;" d="M403 510c12 0 22-9 22-21l0-466c0-12-10-21-22-21l-296 0c-12 0-21 9-21 21l0 466c0 12 9 21 21 21z m-275-423l254 0 0 381-254 0z m127-64c12 0 21 9 21 21 0 12-9 21-21 21-12 0-21-9-21-21 0-12 9-21 21-21z m-97 208c-5 0-9 4-9 8l0 87 21 0 0 44c0 5 4 9 9 9l152 0c5 0 9-4 9-9l0-44 21 0 0-87c0-4-4-8-9-8l-12 0 0-55c0-5-4-9-9-9l-152 0c-5 0-9 4-9 9l0 55z m34-43l127 0 0 60-127 0z m0 138l127 0 0 32-127 0z"/>
<glyph glyph-name="sms" unicode="&#57536;" d="M330 87l0 42 42 0 0-106c0-11-8-21-20-21l-297 0c-11 0-22 10-22 21l0 466c0 12 11 21 22 21l297 0c12 0 20-9 20-21l0-64-42 0 0 43-254 0 0-382 254 0z m-126-64c11 0 21 9 21 21 0 12-10 21-21 21-12 0-22-9-22-21 0-12 10-21 22-21z m261 360c8 0 13-6 13-12l0-187c0-7-5-13-13-13l-270 0c-7 0-13 6-13 13l0 187c0 7 6 12 13 12z m-8-84l0 42-127-62-106 52-21 10 0-42 127-62z"/>
<glyph glyph-name="transaction" unicode="&#57537;" d="M394 441l-29-69-363 0 0 69z m-90-216l-2-4-300 0 0 70 329 0z m-300-154l0 69 397 0-29-69z m437 301l0 69 69 0 0-69z m0-151l0 70 69 0 0-70z m0-150l0 69 69 0 0-69z"/>
<glyph glyph-name="order" unicode="&#57538;" d="M2 372l0 69 508 0 0-69z m0-151l0 70 508 0 0-70z m0-150l0 70 508 0 0-70z"/>
<glyph glyph-name="balcony" unicode="&#57539;" d="M445 236l44 0 0-234-466 0 0 17 0 0 0 217 42 0 0 249c0 14 11 25 25 25l329 0c14 0 26-11 26-25z m-40-192l42 0 0 149-42 0z m-340 0l43 0 0 149-43 0z m42 192l127 0 0 232-127 0z m169 0l126 0 0 232-126 0z m44-192l43 0 0 149-43 0z m-85 0l43 0 0 149-43 0z m-85 0l43 0 0 149-43 0z"/>
<glyph glyph-name="bath" unicode="&#57540;" d="M23 193l0 21 466 0 0-21c0-50-28-93-70-114l20-20c9-9 9-22 0-30-8-9-21-9-30 0l-37 37c-3 0-7 0-10 0l-212 0c-4 0-7 0-11 0l-37-37c-9-9-22-9-30 0-9 8-9 21 0 30l20 20c-41 21-69 64-69 114z m466 84c12 0 21-9 21-21 0-11-9-21-21-21l-466 0c-12 0-21 10-21 21 0 12 9 21 21 21l42 0 0 187c0 14 12 25 26 25l165 0 42-42-190 0 0-170z"/>
<glyph glyph-name="bed" unicode="&#57541;" d="M485 257c14 0 25-12 25-26l0-207-42 0 0 42-424 0 0-42-42 0 0 207c0 14 11 26 25 26l17 0 0 206c0 14 11 25 25 25l374 0c14 0 25-11 25-25l0-206z m-441-148l424 0 0 105-424 0z m43 205l0-57 155 0 0 83-130 0c-14 0-25-12-25-26z m338 0c0 14-11 26-25 26l-126 0 0-83 151 0z"/>
</font>
</defs>
</svg>
